<svg width="32" height="32" viewBox="0 0 32 32" fill="none" xmlns="http://www.w3.org/2000/svg">
<path fill-rule="evenodd" clip-rule="evenodd" d="M16 28.8002C19.3947 28.8002 22.6505 27.4516 25.0509 25.0512C27.4514 22.6507 28.7999 19.395 28.7999 16.0002C28.7999 12.6054 27.4514 9.34969 25.0509 6.94923C22.6505 4.54876 19.3947 3.2002 16 3.2002C12.6052 3.2002 9.34945 4.54876 6.94898 6.94923C4.54852 9.34969 3.19995 12.6054 3.19995 16.0002C3.19995 19.395 4.54852 22.6507 6.94898 25.0512C9.34945 27.4516 12.6052 28.8002 16 28.8002ZM17.6 11.2002C17.6 10.7758 17.4314 10.3689 17.1313 10.0688C16.8313 9.76877 16.4243 9.60019 16 9.60019C15.5756 9.60019 15.1686 9.76877 14.8686 10.0688C14.5685 10.3689 14.4 10.7758 14.4 11.2002V14.4002H11.2C10.7756 14.4002 10.3686 14.5688 10.0686 14.8688C9.76852 15.1689 9.59995 15.5758 9.59995 16.0002C9.59995 16.4245 9.76852 16.8315 10.0686 17.1316C10.3686 17.4316 10.7756 17.6002 11.2 17.6002H14.4V20.8002C14.4 21.2245 14.5685 21.6315 14.8686 21.9316C15.1686 22.2316 15.5756 22.4002 16 22.4002C16.4243 22.4002 16.8313 22.2316 17.1313 21.9316C17.4314 21.6315 17.6 21.2245 17.6 20.8002V17.6002H20.7999C21.2243 17.6002 21.6313 17.4316 21.9313 17.1316C22.2314 16.8315 22.4 16.4245 22.4 16.0002C22.4 15.5758 22.2314 15.1689 21.9313 14.8688C21.6313 14.5688 21.2243 14.4002 20.7999 14.4002H17.6V11.2002Z" fill="#0184FC"/>
</svg>
