<svg width="174" height="188" viewBox="0 0 174 188" fill="none" xmlns="http://www.w3.org/2000/svg">
<path opacity="0.253397" fill-rule="evenodd" clip-rule="evenodd" d="M31.0745 134.469C31.0745 134.469 31.9461 129.681 35.3737 140.939C38.8013 152.197 77.5592 176.837 90.533 156.882C103.507 136.927 121.849 159.319 134.52 153.33C147.19 147.341 149.197 139.437 139.753 120.393C130.309 101.348 153.54 78.1413 130.382 63.2216C107.225 48.302 125.153 51.9673 125.153 51.9673L125.035 112.879L94.036 140.825L31.0745 134.469Z" fill="url(#paint0_linear_147_8174)"/>
<path opacity="0.518059" fill-rule="evenodd" clip-rule="evenodd" d="M122.982 75.1806C122.982 75.1806 120.289 75.0248 126.252 72.369C132.215 69.7131 143.159 46.6544 131.307 40.8514C119.454 35.0484 130.538 23.4069 126.389 16.8226C122.241 10.2384 117.757 9.6679 107.916 16.1724C98.0744 22.677 79.0883 5.30399 72.4403 19.0948C65.7923 32.8856 77.0847 16.142 77.0847 16.142L104.774 24.8037L122.237 40.0093L122.982 75.1806Z" fill="url(#paint1_linear_147_8174)"/>
<path d="M131.891 81.6732C131.891 116.474 103.512 144.734 68.4457 144.734C33.379 144.734 5 116.474 5 81.6732C5 46.8722 33.379 18.6123 68.4457 18.6123C103.512 18.6123 131.891 46.8722 131.891 81.6732Z" stroke="#89DEFE" stroke-width="10"/>
<path d="M64.1495 18.757C73.2611 18.1424 82.3983 19.4901 90.9368 22.7076C99.4752 25.925 107.213 30.9358 113.622 37.3961C120.031 43.8564 124.961 51.6139 128.077 60.1383C131.193 68.6626 132.423 77.7542 131.682 86.7928" stroke="url(#paint2_linear_147_8174)" stroke-width="10" stroke-linecap="round"/>
<defs>
<linearGradient id="paint0_linear_147_8174" x1="35.7478" y1="76.6855" x2="217.106" y2="144.119" gradientUnits="userSpaceOnUse">
<stop stop-color="#C2E2FF"/>
<stop offset="1" stop-color="#5092F8"/>
</linearGradient>
<linearGradient id="paint1_linear_147_8174" x1="89.6826" y1="76.2067" x2="114.736" y2="-28.4012" gradientUnits="userSpaceOnUse">
<stop stop-color="#C3D7EE"/>
<stop offset="1" stop-color="#5092F8"/>
</linearGradient>
<linearGradient id="paint2_linear_147_8174" x1="75.2903" y1="-7.81427" x2="82.927" y2="233.325" gradientUnits="userSpaceOnUse">
<stop stop-color="#0184FC"/>
<stop offset="1" stop-color="#016BDD"/>
</linearGradient>
</defs>
</svg>
