<svg width="34" height="34" viewBox="0 0 34 34" fill="none" xmlns="http://www.w3.org/2000/svg">
<path d="M12.1891 20.0094V20.74C12.1891 21.9211 13.1462 22.8784 14.327 22.8784L17.7307 22.8781C18.0533 23.7842 18.7654 24.4974 19.6726 24.82C19.6726 24.82 20.6635 25.1104 21.8109 24.8205C22.7169 24.4979 23.4301 23.7849 23.7528 22.8786L23.753 20.7398C23.3114 19.4968 22.1368 18.602 20.7417 18.602C19.3469 18.602 18.1723 19.4968 17.7307 20.7403H14.3272V20.0096C15.5697 19.5666 16.4655 18.3921 16.4655 16.9983C16.4655 15.6032 15.5697 14.4287 14.3272 13.9871V13.2568L17.7309 13.2568C18.1725 14.499 19.3469 15.3947 20.7417 15.3947C22.5125 15.3947 23.949 13.9582 23.949 12.1875C23.949 10.7917 23.0209 9.62047 21.8111 9.1762H21.8098L20.9511 8.94922H20.343L19.6728 9.1762C18.7654 9.4988 18.0535 10.2111 17.7309 11.1181L14.3275 11.1181C13.1464 11.1181 12.1896 12.0758 12.1896 13.2566V13.9868C10.9462 14.4287 10.0513 15.6032 10.0513 16.9983C10.0513 18.3921 10.9457 19.5667 12.1891 20.0094ZM20.741 20.7402C21.3312 20.7402 21.8104 21.2207 21.8104 21.8091C21.8104 22.3977 21.3312 22.878 20.741 22.878C20.1513 22.878 19.6721 22.3979 19.6721 21.8091C19.6721 21.2203 20.1513 20.7402 20.741 20.7402ZM20.741 11.118C21.3312 11.118 21.8104 11.5972 21.8104 12.1873C21.8104 12.7775 21.3312 13.2567 20.741 13.2567C20.1513 13.2567 19.6721 12.7775 19.6721 12.1873C19.6721 11.5972 20.1513 11.118 20.741 11.118ZM13.2578 15.9288C13.8476 15.9288 14.3268 16.4094 14.3268 16.9982C14.3268 17.5871 13.8476 18.0671 13.2578 18.0671C12.6681 18.0671 12.1889 17.5866 12.1889 16.9982C12.1889 16.4096 12.6681 15.9288 13.2578 15.9288Z" fill="white"/>
</svg>
