<svg width="34" height="34" viewBox="0 0 34 34" fill="none" xmlns="http://www.w3.org/2000/svg">
<path d="M12.1894 20.0094V20.74C12.1894 21.9211 13.1465 22.8784 14.3272 22.8784L17.7309 22.8781C18.0535 23.7842 18.7656 24.4974 19.6728 24.82C19.6728 24.82 20.6638 25.1104 21.8111 24.8205C22.7172 24.4979 23.4304 23.7849 23.753 22.8786L23.7532 20.7398C23.3116 19.4968 22.1371 18.602 20.742 18.602C19.3471 18.602 18.1726 19.4968 17.7309 20.7403H14.3275V20.0096C15.57 19.5666 16.4658 18.3921 16.4658 16.9983C16.4658 15.6032 15.57 14.4287 14.3275 13.9871V13.2568L17.7312 13.2568C18.1728 14.499 19.3471 15.3947 20.742 15.3947C22.5127 15.3947 23.9492 13.9582 23.9492 12.1875C23.9492 10.7917 23.0211 9.62047 21.8114 9.1762H21.8101L20.9514 8.94922H20.3432L19.673 9.1762C18.7656 9.4988 18.0538 10.2111 17.7312 11.1181L14.3277 11.1181C13.1467 11.1181 12.1898 12.0758 12.1898 13.2566V13.9868C10.9464 14.4287 10.0515 15.6032 10.0515 16.9983C10.0515 18.3921 10.9459 19.5667 12.1894 20.0094ZM20.7413 20.7402C21.3315 20.7402 21.8107 21.2207 21.8107 21.8091C21.8107 22.3977 21.3315 22.878 20.7413 22.878C20.1515 22.878 19.6724 22.3979 19.6724 21.8091C19.6724 21.2203 20.1516 20.7402 20.7413 20.7402ZM20.7413 11.118C21.3315 11.118 21.8107 11.5972 21.8107 12.1873C21.8107 12.7775 21.3315 13.2567 20.7413 13.2567C20.1515 13.2567 19.6724 12.7775 19.6724 12.1873C19.6724 11.5972 20.1516 11.118 20.7413 11.118ZM13.2581 15.9288C13.8478 15.9288 14.327 16.4094 14.327 16.9982C14.327 17.5871 13.8478 18.0671 13.2581 18.0671C12.6684 18.0671 12.1892 17.5866 12.1892 16.9982C12.1892 16.4096 12.6684 15.9288 13.2581 15.9288Z" fill="black"/>
</svg>
