<svg width="34" height="34" viewBox="0 0 34 34" fill="none" xmlns="http://www.w3.org/2000/svg">
<path d="M26.0659 11.0471V10.4274C26.0659 9.42585 25.2542 8.61398 24.2528 8.61398L21.3662 8.61417C21.0926 7.84577 20.4887 7.24091 19.7193 6.9673V6.34763C19.7193 5.34604 18.9075 4.53417 17.9059 4.53417H11.3929C11.0174 3.48041 10.0223 2.7207 8.83933 2.7207C7.3376 2.7207 6.11934 3.93897 6.11934 5.4407C6.11934 6.94321 7.3376 8.1607 8.83933 8.1607C10.0223 8.1607 11.0184 7.401 11.3929 6.34724H17.9059V6.96692C17.1375 7.24051 16.5326 7.84518 16.259 8.61378H14.7328C13.7312 8.61378 12.9193 9.42565 12.9193 10.4272V12.6938H11.3929C11.0173 11.6404 10.0221 10.8807 8.83914 10.8807C7.33741 10.8807 6.11914 12.099 6.11914 13.6007C6.11914 15.103 7.33741 16.3207 8.83914 16.3207C10.0221 16.3207 11.0182 15.5622 11.3927 14.5076H12.9191C13.9207 14.5076 14.7326 13.6954 14.7326 12.6942V10.4276H16.2588C16.6333 11.4818 17.6295 12.2407 18.8126 12.2407C19.9956 12.2407 20.9917 11.4818 21.3662 10.4272H24.2526V11.0469C23.1988 11.4226 22.4391 12.4187 22.4391 13.6007C22.4391 14.7839 23.1988 15.78 24.2526 16.1545V16.7738H21.366C20.9915 15.7204 19.9956 14.9607 18.8126 14.9607C17.3109 14.9607 16.0926 16.179 16.0926 17.6807C16.0926 18.8644 16.8523 19.86 17.9057 20.2345V20.8538H11.3927C11.0173 19.8004 10.0221 19.0407 8.83914 19.0407C7.33741 19.0407 6.11914 20.259 6.11914 21.7607C6.11914 23.2641 7.33741 24.4807 8.83914 24.4807C10.0221 24.4807 11.0182 23.7218 11.3927 22.6672H17.9057C18.9073 22.6672 19.7191 21.8556 19.7191 20.8538V20.2345C20.4887 19.9609 21.0924 19.3568 21.366 18.5876H24.2524C25.254 18.5876 26.0655 17.7754 26.0655 16.774V16.1547C27.12 15.78 27.8789 14.7839 27.8789 13.6007C27.8789 12.4187 27.12 11.4226 26.0655 11.0471L26.0659 11.0471ZM8.83953 6.34725C8.34017 6.34725 7.93299 5.9397 7.93299 5.44071C7.93299 4.94154 8.34016 4.53417 8.83953 4.53417C9.3389 4.53417 9.74607 4.94171 9.74607 5.44071C9.74607 5.93988 9.3389 6.34725 8.83953 6.34725ZM8.83953 14.5077C8.34017 14.5077 7.93299 14.1002 7.93299 13.6008C7.93299 13.1014 8.34016 12.6943 8.83953 12.6943C9.3389 12.6943 9.74607 13.1018 9.74607 13.6008C9.74607 14.1 9.3389 14.5077 8.83953 14.5077ZM18.8132 10.4273C18.3127 10.4273 17.9063 10.0198 17.9063 9.52081C17.9063 9.02164 18.3127 8.61427 18.8132 8.61427C19.3133 8.61427 19.7197 9.02143 19.7197 9.52081C19.7197 10.0202 19.3133 10.4273 18.8132 10.4273ZM8.83953 22.6673C8.34017 22.6673 7.93299 22.2609 7.93299 21.7608C7.93299 21.2603 8.34016 20.8539 8.83953 20.8539C9.3389 20.8539 9.74607 21.2603 9.74607 21.7608C9.74607 22.261 9.3389 22.6673 8.83953 22.6673V22.6673ZM18.8132 18.5877C18.3127 18.5877 17.9063 18.1813 17.9063 17.6808C17.9063 17.1803 18.3127 16.7739 18.8132 16.7739C19.3133 16.7739 19.7197 17.1803 19.7197 17.6808C19.7197 18.1813 19.3133 18.5877 18.8132 18.5877ZM25.1595 14.5077C24.6594 14.5077 24.253 14.1002 24.253 13.6008C24.253 13.1014 24.6594 12.6943 25.1595 12.6943C25.6597 12.6943 26.0661 13.1018 26.0661 13.6008C26.0661 14.1 25.6597 14.5077 25.1595 14.5077Z" fill="black"/>
</svg>
