<svg width="34" height="34" viewBox="0 0 34 34" fill="none" xmlns="http://www.w3.org/2000/svg">
<path d="M26.0664 11.0461V10.4265C26.0664 9.42487 25.2547 8.613 24.2533 8.613L21.3667 8.61319C21.0931 7.84479 20.4892 7.23993 19.7198 6.96633V6.34665C19.7198 5.34506 18.908 4.53319 17.9064 4.53319H11.3934C11.0179 3.47943 10.0228 2.71973 8.83982 2.71973C7.33809 2.71973 6.11982 3.938 6.11982 5.43973C6.11982 6.94224 7.33809 8.15973 8.83982 8.15973C10.0228 8.15973 11.0189 7.40002 11.3934 6.34627H17.9064V6.96594C17.138 7.23953 16.5331 7.84421 16.2595 8.6128H14.7333C13.7317 8.6128 12.9198 9.42467 12.9198 10.4263V12.6928H11.3934C11.0177 11.6394 10.0226 10.8797 8.83963 10.8797C7.3379 10.8797 6.11963 12.098 6.11963 13.5997C6.11963 15.102 7.3379 16.3197 8.83963 16.3197C10.0226 16.3197 11.0187 15.5612 11.3932 14.5067H12.9196C13.9212 14.5067 14.7331 13.6944 14.7331 12.6932V10.4267H16.2593C16.6338 11.4808 17.6299 12.2397 18.8131 12.2397C19.996 12.2397 20.9922 11.4808 21.3667 10.4263H24.2531V11.0459C23.1993 11.4216 22.4396 12.4177 22.4396 13.5997C22.4396 14.7829 23.1993 15.779 24.2531 16.1535V16.7728H21.3665C20.992 15.7194 19.996 14.9597 18.8131 14.9597C17.3114 14.9597 16.0931 16.178 16.0931 17.6797C16.0931 18.8635 16.8528 19.859 17.9062 20.2335V20.8528H11.3932C11.0177 19.7994 10.0226 19.0397 8.83963 19.0397C7.3379 19.0397 6.11963 20.258 6.11963 21.7597C6.11963 23.2632 7.3379 24.4797 8.83963 24.4797C10.0226 24.4797 11.0187 23.7208 11.3932 22.6663H17.9062C18.9078 22.6663 19.7196 21.8546 19.7196 20.8528V20.2335C20.4892 19.9599 21.0929 19.3558 21.3665 18.5867H24.2529C25.2545 18.5867 26.066 17.7744 26.066 16.773V16.1537C27.1205 15.779 27.8794 14.7829 27.8794 13.5997C27.8794 12.4177 27.1205 11.4216 26.066 11.0461L26.0664 11.0461ZM8.84002 6.34627C8.34065 6.34627 7.93348 5.93873 7.93348 5.43973C7.93348 4.94056 8.34064 4.53319 8.84002 4.53319C9.33939 4.53319 9.74655 4.94074 9.74655 5.43973C9.74655 5.9389 9.33939 6.34627 8.84002 6.34627ZM8.84002 14.5068C8.34065 14.5068 7.93348 14.0992 7.93348 13.5998C7.93348 13.1005 8.34064 12.6933 8.84002 12.6933C9.33939 12.6933 9.74655 13.1008 9.74655 13.5998C9.74655 14.099 9.33939 14.5068 8.84002 14.5068ZM18.8137 10.4264C18.3131 10.4264 17.9067 10.0188 17.9067 9.51983C17.9067 9.02066 18.3132 8.61329 18.8137 8.61329C19.3138 8.61329 19.7202 9.02046 19.7202 9.51983C19.7202 10.0192 19.3138 10.4264 18.8137 10.4264ZM8.84002 22.6664C8.34065 22.6664 7.93348 22.26 7.93348 21.7598C7.93348 21.2593 8.34064 20.8529 8.84002 20.8529C9.33939 20.8529 9.74655 21.2593 9.74655 21.7598C9.74655 22.26 9.33939 22.6664 8.84002 22.6664V22.6664ZM18.8137 18.5868C18.3131 18.5868 17.9067 18.1804 17.9067 17.6798C17.9067 17.1793 18.3132 16.7729 18.8137 16.7729C19.3138 16.7729 19.7202 17.1793 19.7202 17.6798C19.7202 18.1804 19.3138 18.5868 18.8137 18.5868ZM25.16 14.5068C24.6599 14.5068 24.2535 14.0992 24.2535 13.5998C24.2535 13.1005 24.6599 12.6933 25.16 12.6933C25.6601 12.6933 26.0666 13.1008 26.0666 13.5998C26.0666 14.099 25.6601 14.5068 25.16 14.5068Z" fill="white"/>
</svg>
