<svg width="169" height="192" viewBox="0 0 169 192" fill="none" xmlns="http://www.w3.org/2000/svg">
<g filter="url(#filter0_d_156_7257)">
<path d="M41.8241 61.4311C43.722 60.5044 45.9396 60.497 47.8436 61.4111L54.8098 64.7552C60.0334 67.2629 60.0334 74.7006 54.8098 77.2083L47.8436 80.5525C45.9396 81.4665 43.722 81.4591 41.8241 80.5324L34.975 77.1883C29.8065 74.6647 29.8065 67.2989 34.975 64.7752L41.8241 61.4311Z" fill="#3F3232" fill-opacity="0.03"/>
<path d="M41.8241 61.4311C43.722 60.5044 45.9396 60.497 47.8436 61.4111L54.8098 64.7552C60.0334 67.2629 60.0334 74.7006 54.8098 77.2083L47.8436 80.5525C45.9396 81.4665 43.722 81.4591 41.8241 80.5324L34.975 77.1883C29.8065 74.6647 29.8065 67.2989 34.975 64.7752L41.8241 61.4311Z" stroke="#BED6EB"/>
</g>
<path d="M42.1328 46.9421C43.7625 46.0446 45.7368 46.0376 47.3729 46.9234L66.1404 57.0851C69.959 59.1527 69.959 64.6324 66.1405 66.6999L47.3729 76.8616C45.7368 77.7475 43.7625 77.7404 42.1328 76.8429L23.6807 66.6812C19.9078 64.6035 19.9078 59.1816 23.6807 57.1038L42.1328 46.9421Z" stroke="#BED6EB" stroke-width="2.88" stroke-linecap="round" stroke-linejoin="round"/>
<path opacity="0.154418" d="M20.0322 47.1181C20.0322 38.6708 24.597 30.8828 31.9674 26.7554L32.8674 26.2515C40.4098 22.0278 49.6135 22.0634 57.1231 26.3451L57.6828 26.6642C65.0293 30.8529 69.5648 38.66 69.5648 47.1167C69.5648 55.6841 64.9108 63.5752 57.4131 67.7206L56.842 68.0364C49.4783 72.1077 40.5465 72.1416 33.152 68.1263L32.2334 67.6275C24.7142 63.5445 20.0322 55.6743 20.0322 47.1181Z" fill="url(#paint0_linear_156_7257)"/>
<path d="M22.2637 47.0393C22.2637 39.394 26.4255 32.355 33.1243 28.6704L33.9381 28.2228C40.7008 24.503 48.8967 24.503 55.6594 28.2228L56.4732 28.6704C63.172 32.355 67.3339 39.394 67.3339 47.0393C67.3339 54.6845 63.172 61.7236 56.4732 65.4081L55.6594 65.8558C48.8967 69.5755 40.7008 69.5755 33.9381 65.8558L33.1243 65.4081C26.4255 61.7236 22.2637 54.6845 22.2637 47.0393Z" fill="url(#paint1_linear_156_7257)"/>
<path d="M44.5752 59.2189C44.5752 51.0051 49.3645 43.5454 56.833 40.1265L58.7415 39.2528C62.7597 37.4134 67.3334 40.3498 67.3334 44.7691V49.1618C67.3334 55.629 63.8207 61.5859 58.1612 64.7157L55.9604 65.9328C50.8469 68.7608 44.5752 65.0623 44.5752 59.2189Z" fill="url(#paint2_linear_156_7257)"/>
<path d="M22.2637 44.3589C22.2637 39.9355 26.8546 37.0067 30.8659 38.871C39.4071 42.8407 44.8703 51.4041 44.8703 60.8227V67.0681C44.8703 67.0681 44.8898 68.7299 45.2903 69.2893C45.6336 69.7686 45.9478 69.9174 46.3606 70.1349C46.7734 70.3524 47.685 70.52 47.685 70.52C45.9273 71.4256 43.8327 71.3895 42.1072 70.424L31.3937 64.429C25.7558 61.2741 22.2637 55.3182 22.2637 48.8577V44.3589Z" fill="url(#paint3_linear_156_7257)"/>
<path d="M57.638 49.77V52.1H60.178V52.85H57.638V55.25H60.478V56H56.728V49.02H60.478V49.77H57.638Z" fill="white"/>
<path d="M57.638 49.77V48.77H56.638V49.77H57.638ZM57.638 52.1H56.638V53.1H57.638V52.1ZM60.178 52.1H61.178V51.1H60.178V52.1ZM60.178 52.85V53.85H61.178V52.85H60.178ZM57.638 52.85V51.85H56.638V52.85H57.638ZM57.638 55.25H56.638V56.25H57.638V55.25ZM60.478 55.25H61.478V54.25H60.478V55.25ZM60.478 56V57H61.478V56H60.478ZM56.728 56H55.728V57H56.728V56ZM56.728 49.02V48.02H55.728V49.02H56.728ZM60.478 49.02H61.478V48.02H60.478V49.02ZM60.478 49.77V50.77H61.478V49.77H60.478ZM56.638 49.77V52.1H58.638V49.77H56.638ZM57.638 53.1H60.178V51.1H57.638V53.1ZM59.178 52.1V52.85H61.178V52.1H59.178ZM60.178 51.85H57.638V53.85H60.178V51.85ZM56.638 52.85V55.25H58.638V52.85H56.638ZM57.638 56.25H60.478V54.25H57.638V56.25ZM59.478 55.25V56H61.478V55.25H59.478ZM60.478 55H56.728V57H60.478V55ZM57.728 56V49.02H55.728V56H57.728ZM56.728 50.02H60.478V48.02H56.728V50.02ZM59.478 49.02V49.77H61.478V49.02H59.478ZM60.478 48.77H57.638V50.77H60.478V48.77Z" fill="#BED6EB"/>
<path d="M33.7151 52.41C33.9684 52.45 34.1984 52.5533 34.4051 52.72C34.6184 52.8867 34.7851 53.0933 34.9051 53.34C35.0317 53.5867 35.0951 53.85 35.0951 54.13C35.0951 54.4833 35.0051 54.8033 34.8251 55.09C34.6451 55.37 34.3817 55.5933 34.0351 55.76C33.6951 55.92 33.2917 56 32.8251 56H30.2251V49.03H32.7251C33.1984 49.03 33.6017 49.11 33.9351 49.27C34.2684 49.4233 34.5184 49.6333 34.6851 49.9C34.8517 50.1667 34.9351 50.4667 34.9351 50.8C34.9351 51.2133 34.8217 51.5567 34.5951 51.83C34.3751 52.0967 34.0817 52.29 33.7151 52.41ZM31.1351 52.04H32.6651C33.0917 52.04 33.4217 51.94 33.6551 51.74C33.8884 51.54 34.0051 51.2633 34.0051 50.91C34.0051 50.5567 33.8884 50.28 33.6551 50.08C33.4217 49.88 33.0851 49.78 32.6451 49.78H31.1351V52.04ZM32.7451 55.25C33.1984 55.25 33.5517 55.1433 33.8051 54.93C34.0584 54.7167 34.1851 54.42 34.1851 54.04C34.1851 53.6533 34.0517 53.35 33.7851 53.13C33.5184 52.9033 33.1617 52.79 32.7151 52.79H31.1351V55.25H32.7451Z" fill="white"/>
<path d="M33.7151 52.41L33.404 51.4596L33.5591 53.3978L33.7151 52.41ZM34.4051 52.72L33.7773 53.4984L33.7833 53.5033L33.7894 53.508L34.4051 52.72ZM34.9051 53.34L34.0058 53.7775L34.0106 53.7872L34.0155 53.7968L34.9051 53.34ZM34.8251 55.09L35.6663 55.6308L35.672 55.6218L34.8251 55.09ZM34.0351 55.76L34.4609 56.6649L34.4684 56.6613L34.0351 55.76ZM30.2251 56H29.2251V57H30.2251V56ZM30.2251 49.03V48.03H29.2251V49.03H30.2251ZM33.9351 49.27L33.5023 50.1715L33.5097 50.1751L33.5172 50.1785L33.9351 49.27ZM34.6851 49.9L33.8371 50.43L33.8371 50.43L34.6851 49.9ZM34.5951 51.83L33.8253 51.1917L33.8237 51.1936L34.5951 51.83ZM31.1351 52.04H30.1351V53.04H31.1351V52.04ZM33.6551 50.08L33.0043 50.8393L33.0043 50.8393L33.6551 50.08ZM31.1351 49.78V48.78H30.1351V49.78H31.1351ZM33.8051 54.93L34.4492 55.6949L33.8051 54.93ZM33.7851 53.13L33.1374 53.8919L33.143 53.8967L33.1487 53.9014L33.7851 53.13ZM31.1351 52.79V51.79H30.1351V52.79H31.1351ZM31.1351 55.25H30.1351V56.25H31.1351V55.25ZM33.5591 53.3978C33.6333 53.4095 33.7019 53.4376 33.7773 53.4984L35.0328 51.9416C34.6949 51.6691 34.3035 51.4905 33.871 51.4222L33.5591 53.3978ZM33.7894 53.508C33.8811 53.5797 33.9515 53.6658 34.0058 53.7775L35.8043 52.9025C35.6186 52.5208 35.3557 52.1937 35.0207 51.932L33.7894 53.508ZM34.0155 53.7968C34.0689 53.9007 34.0951 54.0073 34.0951 54.13H36.0951C36.0951 53.6927 35.9946 53.2726 35.7946 52.8832L34.0155 53.7968ZM34.0951 54.13C34.0951 54.3039 34.0536 54.4381 33.9782 54.5582L35.672 55.6218C35.9565 55.1686 36.0951 54.6628 36.0951 54.13H34.0951ZM33.9839 54.5492C33.9187 54.6507 33.8082 54.7595 33.6018 54.8587L34.4684 56.6613C34.9553 56.4271 35.3715 56.0893 35.6663 55.6308L33.9839 54.5492ZM33.6093 54.8552C33.4307 54.9392 33.1793 55 32.8251 55V57C33.4042 57 33.9595 56.9008 34.4609 56.6648L33.6093 54.8552ZM32.8251 55H30.2251V57H32.8251V55ZM31.2251 56V49.03H29.2251V56H31.2251ZM30.2251 50.03H32.7251V48.03H30.2251V50.03ZM32.7251 50.03C33.0892 50.03 33.3364 50.0919 33.5023 50.1715L34.3678 48.3685C33.8671 48.1281 33.3076 48.03 32.7251 48.03V50.03ZM33.5172 50.1785C33.7035 50.2642 33.7901 50.3548 33.8371 50.43L35.5331 49.37C35.2467 48.9118 34.8333 48.5825 34.353 48.3615L33.5172 50.1785ZM33.8371 50.43C33.8984 50.5281 33.9351 50.6423 33.9351 50.8H35.9351C35.9351 50.291 35.8051 49.8053 35.5331 49.37L33.8371 50.43ZM33.9351 50.8C33.9351 51.0204 33.8794 51.1265 33.8253 51.1917L35.3648 52.4683C35.7641 51.9869 35.9351 51.4062 35.9351 50.8H33.9351ZM33.8237 51.1936C33.738 51.2975 33.6122 51.3915 33.404 51.4596L34.0261 53.3604C34.5513 53.1885 35.0122 52.8958 35.3665 52.4664L33.8237 51.1936ZM31.1351 53.04H32.6651V51.04H31.1351V53.04ZM32.6651 53.04C33.2382 53.04 33.8317 52.9056 34.3059 52.4993L33.0043 50.9807C33.0036 50.9813 33.0002 50.9842 32.9919 50.9886C32.9833 50.9932 32.9677 51.0004 32.9426 51.008C32.8908 51.0237 32.8025 51.04 32.6651 51.04V53.04ZM34.3059 52.4993C34.7953 52.0798 35.0051 51.5066 35.0051 50.91H33.0051C33.0051 50.9764 32.9943 50.9983 32.9962 50.9939C32.9969 50.9922 32.9989 50.9882 33.0022 50.9838C33.0053 50.9794 33.0069 50.9785 33.0043 50.9807L34.3059 52.4993ZM35.0051 50.91C35.0051 50.3134 34.7953 49.7402 34.3059 49.3207L33.0043 50.8393C33.0069 50.8415 33.0053 50.8406 33.0022 50.8362C32.9989 50.8318 32.9969 50.8278 32.9962 50.8261C32.9943 50.8217 33.0051 50.8436 33.0051 50.91H35.0051ZM34.3059 49.3207C33.8268 48.9101 33.2224 48.78 32.6451 48.78V50.78C32.9478 50.78 33.0167 50.8499 33.0043 50.8393L34.3059 49.3207ZM32.6451 48.78H31.1351V50.78H32.6451V48.78ZM30.1351 49.78V52.04H32.1351V49.78H30.1351ZM32.7451 56.25C33.3473 56.25 33.9588 56.1079 34.4492 55.6949L33.1609 54.1651C33.1447 54.1788 33.0495 54.25 32.7451 54.25V56.25ZM34.4492 55.6949C34.9628 55.2624 35.1851 54.6664 35.1851 54.04H33.1851C33.1851 54.1187 33.1722 54.1507 33.1704 54.1548C33.1697 54.1564 33.1694 54.157 33.1694 54.157C33.1693 54.157 33.1694 54.157 33.1694 54.157C33.1694 54.1569 33.1695 54.1569 33.1694 54.1569C33.1694 54.1569 33.1693 54.1571 33.1691 54.1573C33.1689 54.1576 33.1685 54.158 33.1679 54.1586C33.1668 54.1598 33.1646 54.162 33.1609 54.1651L34.4492 55.6949ZM35.1851 54.04C35.1851 53.3948 34.9475 52.7926 34.4215 52.3586L33.1487 53.9014C33.1595 53.9103 33.1641 53.9159 33.1656 53.9179C33.167 53.9197 33.1681 53.9215 33.1696 53.9249C33.172 53.9303 33.1851 53.9623 33.1851 54.04H35.1851ZM34.4327 52.3681C33.9399 51.9492 33.3319 51.79 32.7151 51.79V53.79C32.9916 53.79 33.0969 53.8575 33.1374 53.8919L34.4327 52.3681ZM32.7151 51.79H31.1351V53.79H32.7151V51.79ZM30.1351 52.79V55.25H32.1351V52.79H30.1351ZM31.1351 56.25H32.7451V54.25H31.1351V56.25Z" fill="#BED6EB"/>
<path d="M45.5208 41.07C44.8742 41.07 44.2842 40.92 43.7508 40.62C43.2175 40.3133 42.7942 39.89 42.4808 39.35C42.1742 38.8033 42.0208 38.19 42.0208 37.51C42.0208 36.83 42.1742 36.22 42.4808 35.68C42.7942 35.1333 43.2175 34.71 43.7508 34.41C44.2842 34.1033 44.8742 33.95 45.5208 33.95C46.1742 33.95 46.7675 34.1033 47.3008 34.41C47.8342 34.71 48.2542 35.13 48.5608 35.67C48.8675 36.21 49.0208 36.8233 49.0208 37.51C49.0208 38.1967 48.8675 38.81 48.5608 39.35C48.2542 39.89 47.8342 40.3133 47.3008 40.62C46.7675 40.92 46.1742 41.07 45.5208 41.07ZM45.5208 40.28C46.0075 40.28 46.4442 40.1667 46.8308 39.94C47.2242 39.7133 47.5308 39.39 47.7508 38.97C47.9775 38.55 48.0908 38.0633 48.0908 37.51C48.0908 36.95 47.9775 36.4633 47.7508 36.05C47.5308 35.63 47.2275 35.3067 46.8408 35.08C46.4542 34.8533 46.0142 34.74 45.5208 34.74C45.0275 34.74 44.5875 34.8533 44.2008 35.08C43.8142 35.3067 43.5075 35.63 43.2808 36.05C43.0608 36.4633 42.9508 36.95 42.9508 37.51C42.9508 38.0633 43.0608 38.55 43.2808 38.97C43.5075 39.39 43.8142 39.7133 44.2008 39.94C44.5942 40.1667 45.0342 40.28 45.5208 40.28Z" fill="white"/>
<path d="M43.7508 40.62L43.2523 41.4869L43.2606 41.4916L43.7508 40.62ZM42.4808 39.35L41.6087 39.8393L41.6122 39.8456L41.6159 39.8519L42.4808 39.35ZM42.4808 35.68L41.6132 35.1827L41.6113 35.1862L42.4808 35.68ZM43.7508 34.41L44.2411 35.2816L44.2493 35.2769L43.7508 34.41ZM47.3008 34.41L46.8023 35.2769L46.8106 35.2816L47.3008 34.41ZM48.5608 35.67L49.4304 35.1762V35.1762L48.5608 35.67ZM48.5608 39.35L47.6913 38.8562L48.5608 39.35ZM47.3008 40.62L47.7911 41.4916L47.7993 41.4869L47.3008 40.62ZM46.8308 39.94L46.3315 39.0735L46.3251 39.0773L46.8308 39.94ZM47.7508 38.97L46.8707 38.495L46.865 38.506L47.7508 38.97ZM47.7508 36.05L46.865 36.514L46.8694 36.5225L46.874 36.5308L47.7508 36.05ZM46.8408 35.08L46.3351 35.9427V35.9427L46.8408 35.08ZM44.2008 35.08L44.7065 35.9427L44.7065 35.9427L44.2008 35.08ZM43.2808 36.05L42.4008 35.5751L42.3981 35.5802L43.2808 36.05ZM43.2808 38.97L42.3949 39.434L42.4008 39.4449L43.2808 38.97ZM44.2008 39.94L43.6951 40.8027L43.7015 40.8064L44.2008 39.94ZM45.5208 40.07C45.0358 40.07 44.6162 39.9594 44.2411 39.7484L43.2606 41.4916C43.9521 41.8806 44.7125 42.07 45.5208 42.07V40.07ZM44.2493 39.7531C43.8704 39.5352 43.5724 39.2388 43.3458 38.8481L41.6159 39.8519C42.0159 40.5412 42.5646 41.0915 43.2523 41.4869L44.2493 39.7531ZM43.353 38.8607C43.1372 38.476 43.0208 38.0336 43.0208 37.51H41.0208C41.0208 38.3464 41.2112 39.1306 41.6087 39.8393L43.353 38.8607ZM43.0208 37.51C43.0208 36.9862 43.1372 36.5492 43.3504 36.1738L41.6113 35.1862C41.2111 35.8908 41.0208 36.6738 41.0208 37.51H43.0208ZM43.3484 36.1773C43.5748 35.7823 43.8698 35.4904 44.2411 35.2816L43.2606 33.5384C42.5652 33.9296 42.0135 34.4844 41.6132 35.1827L43.3484 36.1773ZM44.2493 35.2769C44.6231 35.062 45.0398 34.95 45.5208 34.95V32.95C44.7085 32.95 43.9452 33.1447 43.2523 33.5431L44.2493 35.2769ZM45.5208 34.95C46.0105 34.95 46.4301 35.0629 46.8024 35.2769L47.7993 33.5431C47.1048 33.1438 46.3379 32.95 45.5208 32.95V34.95ZM46.8106 35.2816C47.183 35.4911 47.4729 35.7794 47.6913 36.1638L49.4304 35.1762C49.0354 34.4806 48.4853 33.9289 47.7911 33.5384L46.8106 35.2816ZM47.6913 36.1638C47.9036 36.5378 48.0208 36.9777 48.0208 37.51H50.0208C50.0208 36.669 49.8313 35.8822 49.4304 35.1762L47.6913 36.1638ZM48.0208 37.51C48.0208 38.0423 47.9036 38.4822 47.6913 38.8562L49.4304 39.8438C49.8313 39.1378 50.0208 38.351 50.0208 37.51H48.0208ZM47.6913 38.8562C47.4719 39.2425 47.1794 39.5363 46.8023 39.7531L47.7993 41.4869C48.4889 41.0904 49.0364 40.5375 49.4304 39.8438L47.6913 38.8562ZM46.8106 39.7484C46.437 39.9585 46.0144 40.07 45.5208 40.07V42.07C46.3339 42.07 47.0979 41.8815 47.7911 41.4916L46.8106 39.7484ZM45.5208 41.28C46.1695 41.28 46.7835 41.1269 47.3365 40.8027L46.3251 39.0773C46.1048 39.2064 45.8455 39.28 45.5208 39.28V41.28ZM47.3301 40.8064C47.8954 40.4807 48.3327 40.0143 48.6367 39.434L46.865 38.506C46.7289 38.7657 46.5529 38.946 46.3315 39.0736L47.3301 40.8064ZM48.6308 39.4449C48.948 38.8573 49.0908 38.2026 49.0908 37.51H47.0908C47.0908 37.9241 47.007 38.2427 46.8708 38.4951L48.6308 39.4449ZM49.0908 37.51C49.0908 36.8135 48.9491 36.1553 48.6276 35.5692L46.874 36.5308C47.0059 36.7714 47.0908 37.0865 47.0908 37.51H49.0908ZM48.6367 35.586C48.335 35.0102 47.9042 34.5442 47.3465 34.2173L46.3351 35.9427C46.5507 36.0691 46.7266 36.2498 46.865 36.514L48.6367 35.586ZM47.3465 34.2173C46.7914 33.8919 46.1735 33.74 45.5208 33.74V35.74C45.8548 35.74 46.1169 35.8148 46.3351 35.9427L47.3465 34.2173ZM45.5208 33.74C44.8681 33.74 44.2503 33.8919 43.6951 34.2173L44.7065 35.9427C44.9247 35.8148 45.1869 35.74 45.5208 35.74V33.74ZM43.6951 34.2173C43.1402 34.5426 42.7085 35.0049 42.4008 35.5751L44.1608 36.5249C44.3064 36.2551 44.4881 36.0707 44.7065 35.9427L43.6951 34.2173ZM42.3981 35.5802C42.0874 36.1639 41.9508 36.8181 41.9508 37.51H43.9508C43.9508 37.0819 44.0343 36.7627 44.1636 36.5198L42.3981 35.5802ZM41.9508 37.51C41.9508 38.1979 42.0884 38.8487 42.395 39.434L44.1667 38.506C44.0333 38.2513 43.9508 37.9288 43.9508 37.51H41.9508ZM42.4008 39.4449C42.7085 40.0151 43.1402 40.4774 43.6951 40.8027L44.7065 39.0773C44.4881 38.9493 44.3064 38.7649 44.1608 38.4951L42.4008 39.4449ZM43.7015 40.8064C44.2576 41.1269 44.8719 41.28 45.5208 41.28V39.28C45.1964 39.28 44.9307 39.2064 44.7001 39.0736L43.7015 40.8064Z" fill="#BED6EB"/>
<defs>
<filter id="filter0_d_156_7257" x="-78.9014" y="-49.2695" width="247.629" height="240.502" filterUnits="userSpaceOnUse" color-interpolation-filters="sRGB">
<feFlood flood-opacity="0" result="BackgroundImageFix"/>
<feColorMatrix in="SourceAlpha" type="matrix" values="0 0 0 0 0 0 0 0 0 0 0 0 0 0 0 0 0 0 127 0" result="hardAlpha"/>
<feOffset/>
<feGaussianBlur stdDeviation="55"/>
<feColorMatrix type="matrix" values="0 0 0 0 0.207843 0 0 0 0 0.407843 0 0 0 0 0.831373 0 0 0 0.4 0"/>
<feBlend mode="normal" in2="BackgroundImageFix" result="effect1_dropShadow_156_7257"/>
<feBlend mode="normal" in="SourceGraphic" in2="effect1_dropShadow_156_7257" result="shape"/>
</filter>
<linearGradient id="paint0_linear_156_7257" x1="20.0322" y1="20" x2="20.0322" y2="74.0479" gradientUnits="userSpaceOnUse">
<stop stop-color="#E8F0FF"/>
<stop offset="1" stop-color="#3E7BFA"/>
</linearGradient>
<linearGradient id="paint1_linear_156_7257" x1="42.255" y1="16.1961" x2="24.2172" y2="39.0548" gradientUnits="userSpaceOnUse">
<stop stop-color="#6F9EFE"/>
<stop offset="1" stop-color="#5990FF"/>
</linearGradient>
<linearGradient id="paint2_linear_156_7257" x1="41.4831" y1="22.4468" x2="41.4831" y2="65.5602" gradientUnits="userSpaceOnUse">
<stop stop-color="#6698FF"/>
<stop offset="1" stop-color="#3E7BFA"/>
</linearGradient>
<linearGradient id="paint3_linear_156_7257" x1="22.661" y1="39.3164" x2="22.661" y2="70.0584" gradientUnits="userSpaceOnUse">
<stop stop-color="#0556FF" stop-opacity="0.39"/>
<stop offset="1" stop-color="#6A9BFE"/>
</linearGradient>
</defs>
</svg>
