<svg width="105" height="192" viewBox="0 0 105 192" fill="none" xmlns="http://www.w3.org/2000/svg">
<path fill-rule="evenodd" clip-rule="evenodd" d="M74.7396 80.5988C69.2447 80.7837 56.3747 81.7191 48.8998 80.8022C48.8998 80.8022 41.1364 79.6704 42.2367 73.4309C43.3096 67.347 51.1769 68.8538 51.1769 68.8538C60.02 70.3668 70.3342 72.4169 75.2976 73.1055C75.2976 73.1055 77.9382 73.593 78.0128 76.6593C78.1016 80.2973 74.7396 80.5988 74.7396 80.5988Z" fill="#FFC2BD"/>
<path fill-rule="evenodd" clip-rule="evenodd" d="M64.2875 69.5855C64.7097 67.4992 63.1918 61.7892 63.2493 61.0563C63.4094 59.0205 62.4065 52.4091 56.4141 51.5973C51.6219 50.948 49.217 54.4993 48.2451 57.2088C47.575 59.0763 50.269 68.316 50.0134 70.5332L64.2875 69.5855Z" fill="#597EF7"/>
<path fill-rule="evenodd" clip-rule="evenodd" d="M41.9569 125.141C45.0537 125.438 47.8602 123.464 48.3361 120.655L53.1339 92.6586C53.7754 88.8731 50.7026 85.7286 46.5294 85.3291C42.3566 84.9297 38.6662 87.7989 38.4336 91.6233L36.7357 119.544C36.563 122.382 38.8604 124.845 41.9569 125.141Z" fill="#4E5C93"/>
<path fill-rule="evenodd" clip-rule="evenodd" d="M27.3409 143.943L35.6657 146.809C38.6541 145.899 37.7372 142.263 37.7372 142.263L47.479 121.385C48.7735 118.6 47.2686 115.391 44.1671 114.323C41.0657 113.255 37.6143 114.758 36.5715 117.63L28.6418 139.541C28.6418 139.541 25.6381 141.582 27.3409 143.943Z" fill="#253368"/>
<path fill-rule="evenodd" clip-rule="evenodd" d="M33.8897 159.339L23.9365 155.149L27.4306 144.008L35.3959 146.75L31.8213 153.555L34.7387 158.516C35.0355 159.02 34.4591 159.579 33.8897 159.339Z" fill="#253368"/>
<path fill-rule="evenodd" clip-rule="evenodd" d="M30.4829 77.6813C30.4829 77.6813 23.9718 54.8213 25.0989 52.7639C26.2259 50.7065 33.1004 47.5519 42.228 48.4994C55.8462 49.913 58.5786 52.2902 58.5786 52.2902C58.5786 52.2902 55.6415 67.2611 52.919 76.1852C54.3529 78.5231 51.7459 80.1827 51.7459 80.1827C51.7459 80.1827 35.3805 79.4922 31.4876 79.6793C29.6693 78.9676 30.4829 77.6813 30.4829 77.6813Z" fill="#597EF7"/>
<path fill-rule="evenodd" clip-rule="evenodd" d="M53.1335 92.6585L46.3797 97.7789L30.5484 94.6988C30.5484 94.6988 28.7316 89.4865 31.1457 81.9901C31.6653 80.6861 31.8764 79.708 31.8764 79.708C31.8764 79.708 44.9252 80.085 52.3595 80.1823L52.6192 82.316C52.6192 82.316 54.3625 85.9268 53.1335 92.6585Z" fill="#4E5C93"/>
<path fill-rule="evenodd" clip-rule="evenodd" d="M38.1406 46.4373L39.8923 36.2207L50.5543 37.1777L49.349 48.2773L45.7188 53.3118L38.1406 46.4373Z" fill="#FFC2BD"/>
<path fill-rule="evenodd" clip-rule="evenodd" d="M44.1017 30.7962C44.1017 30.7962 50.2189 30.0372 51.4961 32.745C52.738 35.3786 51.6709 44.2872 48.3981 45.2998C45.7302 46.1253 40.6491 45.0434 39.9922 40.6128C39.9922 40.6128 39.3961 37.2037 40.1719 34.3037C40.9474 31.404 44.1017 30.7962 44.1017 30.7962Z" fill="#FFC2BD"/>
<path fill-rule="evenodd" clip-rule="evenodd" d="M40.3345 38.0227C40.3345 38.0227 39.0963 35.0204 37.6694 36.4158C36.2422 37.8107 37.9318 40.8627 39.7523 40.9437C41.5727 41.0248 40.3345 38.0227 40.3345 38.0227Z" fill="#FFC2BD"/>
<path fill-rule="evenodd" clip-rule="evenodd" d="M51.8505 37.9786C51.8505 37.9786 53.0752 34.6506 52.4527 32.4327C51.8302 30.2149 50.9499 27.9684 49.9639 28.9942C49.9052 28.4503 49.2717 27.3059 48.738 26.8888C48.2046 26.472 46.0962 28.5684 46.0962 28.5684C46.0962 28.5684 46.3651 27.5233 45.5705 28.0924C44.7759 28.6615 40.1923 30.1868 39.3433 31.168C38.4944 32.1491 38.3564 36.0847 38.3564 36.0847C38.3564 36.0847 39.7578 36.1198 40.1803 38.6142C40.2436 36.6507 41.2631 35.7332 41.7688 35.3969C41.9605 35.2696 42.0862 35.0769 42.1323 34.8646C42.2211 34.457 42.3634 33.7721 42.4712 33.0994C42.5188 32.8032 42.7895 32.5833 43.1174 32.5679C46.4538 32.4114 49.9851 33.2717 51.2384 33.6139C51.5217 33.6913 51.715 33.9277 51.7187 34.1978L51.7494 36.4404C51.7494 36.4404 51.8695 36.8462 51.8505 37.9786Z" fill="#253368"/>
<path d="M43.9862 36.3148C44.0141 36.3112 44.0424 36.3118 44.07 36.3165L44.0973 36.3226L46.144 36.8864C46.2812 36.9242 46.3588 37.0563 46.3174 37.1816C46.2786 37.299 46.1489 37.3687 46.0198 37.3458L45.994 37.3399L44.0021 36.7912L42.9333 36.9284C42.8003 36.9455 42.6767 36.8672 42.6453 36.7506L42.6403 36.7268C42.6215 36.6054 42.7073 36.4925 42.835 36.4638L42.8611 36.4593L43.9862 36.3148Z" fill="#253368"/>
<path d="M50.369 36.808C50.4057 36.8033 50.443 36.8058 50.4784 36.8153L50.5045 36.8237L51.2831 37.1185C51.4154 37.1687 51.4782 37.3072 51.4233 37.4281C51.3719 37.5414 51.2352 37.5988 51.1093 37.5643L51.0843 37.5561L50.3708 37.286L48.3122 37.55C48.1792 37.5671 48.0555 37.4888 48.0242 37.3722L48.0192 37.3484C48.0005 37.2269 48.0862 37.1141 48.2139 37.0855L48.24 37.0809L50.369 36.808Z" fill="#253368"/>
<path fill-rule="evenodd" clip-rule="evenodd" d="M40.2817 39.1671C40.2817 39.1671 41.7909 40.5376 42.4979 41.8694C43.8873 40.6341 45.2383 40.1862 45.2383 40.1862C45.2383 40.1862 46.5678 41.337 47.382 41.1135C47.6589 40.8753 47.6684 40.603 47.6684 40.603C47.6684 40.603 48.9155 41.1881 49.6708 42.5252C50.174 41.6851 51.415 40.6621 51.415 40.6621C51.415 40.6621 50.885 46.4501 46.232 46.0271C41.5423 45.5107 40.2921 42.9697 40.023 40.9252C39.9824 40.2891 40.0014 38.6883 40.2817 39.1671Z" fill="#EFADAB"/>
<path d="M44.0045 41.1141C44.059 41.022 44.1849 40.9877 44.2857 41.0375L44.3449 41.0654L44.4268 41.1022C44.4561 41.1151 44.4874 41.1287 44.5207 41.1427C44.7113 41.2233 44.9241 41.3041 45.1531 41.3794C45.8025 41.593 46.4503 41.7211 47.0483 41.7217C47.2541 41.7219 47.4508 41.7068 47.637 41.6753C47.7497 41.6563 47.858 41.7243 47.8788 41.8272C47.8997 41.9301 47.8252 42.0289 47.7125 42.0479C47.5002 42.0838 47.2783 42.1009 47.0479 42.1007C46.3953 42.1 45.7031 41.9631 45.0124 41.7359C44.7713 41.6566 44.5474 41.5716 44.3462 41.4866L44.246 41.4433L44.1229 41.3874C44.1077 41.3802 44.0962 41.3747 44.0884 41.3709C43.9876 41.3211 43.95 41.2062 44.0045 41.1141Z" fill="#D18888"/>
<path d="M47.7327 37.2992C47.7887 37.3102 47.8264 37.3566 47.8237 37.4071L47.8212 37.4241L47.6746 38.0485L47.6876 38.1823L47.7007 38.3307C47.7072 38.4077 47.7136 38.4889 47.7197 38.5733C47.7449 38.92 47.7614 39.2641 47.7655 39.5859C47.7769 40.5011 47.6963 41.0628 47.4409 41.2029C47.2161 41.3261 46.855 41.2379 46.3723 41.004C46.2465 40.943 46.1149 40.8729 45.9793 40.7954C45.8064 40.6966 45.6357 40.5908 45.4746 40.4851L45.3569 40.4065L45.2652 40.3433C45.215 40.3077 45.2059 40.2416 45.2449 40.1958C45.284 40.1499 45.3564 40.1416 45.4066 40.1772L45.4604 40.2145C45.5042 40.2446 45.5541 40.2781 45.6092 40.3143C45.7665 40.4176 45.9332 40.5209 46.1016 40.6171C46.2328 40.6921 46.3597 40.7597 46.4804 40.8182C46.8899 41.0167 47.1964 41.0915 47.3223 41.0225C47.4659 40.9437 47.5451 40.3923 47.535 39.5883C47.5311 39.2707 47.5147 38.9303 47.4898 38.5872L47.4709 38.3469L47.4528 38.1446L47.4436 38.0523L47.4456 38.0201L47.5959 37.38C47.6079 37.3289 47.6587 37.2945 47.7141 37.297L47.7327 37.2992Z" fill="#D18888"/>
<path d="M45.7359 42.7955L46.8224 42.9105C46.8856 42.9172 46.9309 42.9694 46.9236 43.0271C46.917 43.0791 46.87 43.1177 46.8146 43.1201L46.7958 43.1195L45.7094 43.0045C45.6462 42.9978 45.6009 42.9456 45.6082 42.8879C45.6148 42.836 45.6618 42.7973 45.7172 42.7949L45.7359 42.7955Z" fill="#D18888"/>
<path fill-rule="evenodd" clip-rule="evenodd" d="M45.0012 38.5671C44.956 38.9085 44.7032 39.1612 44.4362 39.1317C44.1692 39.1023 43.9891 38.8019 44.0343 38.4608C44.0794 38.1194 44.3323 37.8664 44.5993 37.8959C44.8663 37.9253 45.0464 38.226 45.0012 38.5671Z" fill="#253368"/>
<path fill-rule="evenodd" clip-rule="evenodd" d="M50.0784 39.1267C50.0332 39.4677 49.7803 39.7208 49.5133 39.6913C49.2463 39.6618 49.0663 39.3614 49.1114 39.0201C49.1566 38.6787 49.4095 38.426 49.6765 38.4555C49.9435 38.4849 50.1235 38.7853 50.0784 39.1267Z" fill="#253368"/>
<path d="M44.4128 40.652C44.4795 40.6042 44.5761 40.6148 44.6285 40.6757C44.6761 40.7311 44.6708 40.809 44.6193 40.8587L44.6025 40.8727L43.6635 41.5453C43.5968 41.5931 43.5002 41.5825 43.4478 41.5215C43.4002 41.4661 43.4055 41.3882 43.457 41.3386L43.4738 41.3246L44.4128 40.652Z" fill="#D18888"/>
<path d="M40.032 40.9892C40.1031 40.9813 40.1677 41.0275 40.1764 41.0924L40.1848 41.1462C40.19 41.1761 40.1972 41.214 40.2066 41.2591L40.2142 41.2944C40.2498 41.4584 40.2991 41.6416 40.3641 41.839C40.55 42.4034 40.8246 42.9679 41.2045 43.494C42.4087 45.1617 44.3713 46.0804 47.2901 45.8622C47.3615 45.8569 47.4241 45.9054 47.4299 45.9705C47.4358 46.0357 47.3827 46.0928 47.3113 46.0982C44.2959 46.3236 42.2433 45.3627 40.988 43.6243C40.5932 43.0775 40.3085 42.4923 40.1158 41.9072C40.0482 41.7022 39.997 41.5117 39.9598 41.3404L39.9421 41.2551L39.9223 41.144C39.9208 41.1341 39.9197 41.1264 39.9189 41.1209C39.9103 41.056 39.9609 40.997 40.032 40.9892Z" fill="#D18888"/>
<path d="M46.0742 44.0655C46.1319 44.041 46.2004 44.0638 46.2273 44.1165C46.2472 44.1555 46.2757 44.2225 46.3038 44.3105C46.3794 44.547 46.405 44.7918 46.3494 45.0245C46.2774 45.3262 46.0744 45.5714 45.7216 45.7331C45.6648 45.7591 45.5955 45.7382 45.567 45.6863C45.5384 45.6343 45.5614 45.5711 45.6182 45.5451C45.9078 45.4123 46.0668 45.2203 46.1243 44.9797C46.1704 44.7864 46.1483 44.5751 46.0826 44.3695L46.0618 44.3085C46.0448 44.262 46.0293 44.2267 46.0184 44.2053C45.9915 44.1526 46.0165 44.09 46.0742 44.0655Z" fill="#D18888"/>
<path d="M37.8991 37.3478C37.9908 37.0665 38.2467 36.9542 38.6242 37.1369C39.2046 37.4175 39.2135 37.8323 38.908 38.5622C38.7399 38.9635 38.8658 39.2142 39.2765 39.3373C39.3446 39.3577 39.3816 39.4246 39.3593 39.4867C39.3369 39.5488 39.2637 39.5826 39.1956 39.5622C38.6425 39.3964 38.4454 39.0038 38.6657 38.4777C38.929 37.8486 38.9226 37.5491 38.5028 37.346C38.2758 37.2362 38.1944 37.2719 38.1477 37.4153C38.1319 37.4637 38.1247 37.5154 38.123 37.5591L38.1227 37.5903C38.1257 37.657 38.0701 37.7121 37.9986 37.7148C37.9335 37.7173 37.8777 37.6755 37.8659 37.6189L37.8635 37.5955C37.8618 37.5242 37.8703 37.4362 37.8991 37.3478Z" fill="#D18888"/>
<path fill-rule="evenodd" clip-rule="evenodd" d="M44.7834 42.5682C44.7647 42.6271 44.6971 42.6611 44.6326 42.6437C44.568 42.6266 44.5309 42.5646 44.5499 42.5057C44.5687 42.4468 44.6362 42.4131 44.7008 42.4302C44.7653 42.4476 44.8025 42.5093 44.7834 42.5682Z" fill="#D18888"/>
<path fill-rule="evenodd" clip-rule="evenodd" d="M42.9143 42.7841C42.8955 42.843 42.8279 42.8766 42.7634 42.8595C42.6989 42.8424 42.6617 42.7804 42.6808 42.7215C42.6995 42.6626 42.7671 42.6289 42.8316 42.6461C42.8962 42.6634 42.9333 42.7252 42.9143 42.7841Z" fill="#D18888"/>
<path fill-rule="evenodd" clip-rule="evenodd" d="M48.712 43.7882C48.7276 43.848 48.6874 43.908 48.6222 43.9223C48.5568 43.9366 48.491 43.8998 48.4751 43.8404C48.4594 43.7806 48.4996 43.7206 48.5651 43.7063C48.6305 43.6917 48.6963 43.7287 48.712 43.7882Z" fill="#D18888"/>
<path fill-rule="evenodd" clip-rule="evenodd" d="M49.9161 43.3861C49.9317 43.4455 49.8915 43.5058 49.8263 43.5201C49.7609 43.5344 49.6951 43.4977 49.6792 43.4379C49.6635 43.3785 49.7037 43.3182 49.7692 43.3039C49.8346 43.2896 49.9004 43.3263 49.9161 43.3861Z" fill="#D18888"/>
<path fill-rule="evenodd" clip-rule="evenodd" d="M47.6856 44.0011C47.7013 44.0609 47.661 44.1209 47.5959 44.1352C47.5304 44.1495 47.4647 44.1127 47.4487 44.0533C47.433 43.9935 47.4733 43.9335 47.5387 43.9192C47.6042 43.9046 47.6699 43.9414 47.6856 44.0011Z" fill="#D18888"/>
<path fill-rule="evenodd" clip-rule="evenodd" d="M46.3086 43.5929C46.3243 43.6524 46.2841 43.7127 46.2189 43.727C46.1535 43.7413 46.0877 43.7045 46.0717 43.6448C46.0561 43.5853 46.0963 43.525 46.1618 43.511C46.2272 43.4964 46.293 43.5332 46.3086 43.5929Z" fill="#D18888"/>
<path fill-rule="evenodd" clip-rule="evenodd" d="M41.5664 42.1749C41.5821 42.2347 41.5419 42.2947 41.4764 42.309C41.4113 42.3233 41.3455 42.2866 41.3296 42.2271C41.3139 42.1674 41.3541 42.1073 41.4196 42.093C41.485 42.0785 41.5508 42.1152 41.5664 42.1749Z" fill="#D18888"/>
<path fill-rule="evenodd" clip-rule="evenodd" d="M43.6672 44.0165C43.6485 44.0754 43.5809 44.1093 43.5164 44.0919C43.4518 44.0748 43.4147 44.0128 43.4337 43.9539C43.4524 43.895 43.52 43.8614 43.5846 43.8785C43.6491 43.8959 43.6863 43.9576 43.6672 44.0165Z" fill="#D18888"/>
<path fill-rule="evenodd" clip-rule="evenodd" d="M44.6272 43.9489C44.6082 44.0078 44.5409 44.0418 44.4763 44.0244C44.4115 44.0073 44.3746 43.9455 44.3937 43.8866C44.4124 43.8277 44.48 43.7938 44.5446 43.8112C44.6091 43.8283 44.6463 43.89 44.6272 43.9489Z" fill="#D18888"/>
<path fill-rule="evenodd" clip-rule="evenodd" d="M48.3754 44.663C48.3564 44.7219 48.2891 44.7558 48.2246 44.7384C48.1597 44.7213 48.1229 44.6593 48.1416 44.6004C48.1606 44.5415 48.2282 44.5079 48.2928 44.525C48.3573 44.5424 48.3945 44.6041 48.3754 44.663Z" fill="#D18888"/>
<path fill-rule="evenodd" clip-rule="evenodd" d="M47.9487 43.2938C47.9296 43.3527 47.8623 43.3867 47.7975 43.3693C47.733 43.3522 47.6961 43.2905 47.7148 43.2313C47.7339 43.1724 47.8015 43.1387 47.866 43.1558C47.9305 43.1732 47.9674 43.2349 47.9487 43.2938Z" fill="#D18888"/>
<path fill-rule="evenodd" clip-rule="evenodd" d="M48.5295 42.238C48.5108 42.2969 48.4432 42.3308 48.3787 42.3137C48.3141 42.2963 48.277 42.2346 48.296 42.1757C48.3147 42.1168 48.3823 42.0829 48.4469 42.1003C48.5114 42.1174 48.5486 42.1791 48.5295 42.238Z" fill="#D18888"/>
<path fill-rule="evenodd" clip-rule="evenodd" d="M42.7044 43.4589C42.6853 43.5178 42.618 43.5517 42.5535 43.5343C42.4887 43.5172 42.4518 43.4555 42.4708 43.3963C42.4896 43.3374 42.5572 43.3038 42.6217 43.3209C42.6862 43.3383 42.7234 43.4 42.7044 43.4589Z" fill="#D18888"/>
<path fill-rule="evenodd" clip-rule="evenodd" d="M50.537 50.7263L49.8402 46.9355L47.3397 47.0154L45.4787 51.7969L43.1604 46.6443L37.6517 45.7529L35.9756 48.5539C35.9756 48.5539 38.9541 54.1904 45.832 53.5371C49.2296 53.2143 50.537 50.7263 50.537 50.7263Z" fill="#597EF7"/>
<path d="M56.3934 58.1464C56.4568 58.1329 56.5202 58.1688 56.535 58.2267L56.5466 58.2757C56.5555 58.3151 56.5655 58.3618 56.5761 58.4158C56.6021 58.5474 56.6281 58.6992 56.6528 58.8706L56.665 58.958C56.8341 60.2013 56.8552 61.736 56.6334 63.5173C56.3268 65.9803 55.5876 68.6006 54.3211 71.3333C54.2958 71.3881 54.2266 71.4136 54.1667 71.3905C54.1067 71.3674 54.0787 71.3042 54.1041 71.2495C55.3616 68.5361 56.0951 65.9359 56.3992 63.493C56.6188 61.7292 56.598 60.2115 56.4311 58.9845L56.4069 58.8164C56.3906 58.7087 56.3738 58.6098 56.3569 58.5198L56.3318 58.3927C56.3202 58.3369 56.3111 58.2977 56.3055 58.2756C56.2907 58.2177 56.3301 58.1599 56.3934 58.1464Z" fill="#253368"/>
<path fill-rule="evenodd" clip-rule="evenodd" d="M52.6522 82.346C42.7915 82.7704 31.0977 81.8523 31.0977 81.8523L31.4873 79.3184C31.4873 79.3184 44.3099 79.6115 52.7321 79.7481C52.9109 80.9631 52.6522 82.346 52.6522 82.346Z" fill="#253368"/>
<path d="M45.8852 81.9229C45.9801 81.9129 46.0659 81.975 46.0769 82.0617L46.1179 82.4135C46.1259 82.4853 46.1343 82.5621 46.1429 82.6437L46.1698 82.9037C46.2101 83.3026 46.25 83.7409 46.2878 84.2126C46.4888 86.7282 46.5635 89.3144 46.4376 91.7305C46.3318 93.7625 46.0873 95.5505 45.6826 97.0282C45.6595 97.1128 45.5656 97.1642 45.4729 97.1431C45.3802 97.1219 45.3238 97.0362 45.347 96.9516C45.7454 95.4967 45.9872 93.7284 46.092 91.7155C46.2117 89.4182 46.1489 86.9631 45.9681 84.5626L45.9427 84.2356C45.9052 83.766 45.8654 83.3297 45.8253 82.9328L45.7818 82.5184L45.7332 82.098C45.7222 82.0113 45.7903 81.933 45.8852 81.9229Z" fill="#253368"/>
<path d="M49.3612 82.0401C49.4567 82.0388 49.5353 82.1085 49.5367 82.1957L49.5415 82.6077C49.5562 84.2164 49.5421 86.0441 49.4782 87.8005L49.457 88.3381C49.3152 91.6587 49.0261 93.696 48.4784 94.0847C48.2068 94.2777 47.8934 94.4772 47.5464 94.6807C47.1112 94.936 46.6456 95.1849 46.18 95.4175L45.9904 95.5114C45.9292 95.5414 45.8701 95.57 45.8133 95.5972L45.6132 95.692C45.59 95.7028 45.5715 95.7114 45.558 95.7175C45.4725 95.7565 45.3686 95.7249 45.3259 95.6469C45.2832 95.5689 45.3178 95.474 45.4033 95.435L45.5703 95.3569L45.738 95.2764C45.8252 95.234 45.9175 95.1887 46.0139 95.1405C46.4729 94.9111 46.9317 94.6659 47.3594 94.415C47.6982 94.2163 48.0033 94.0221 48.266 93.8354C48.6938 93.5318 48.9902 91.3611 49.1207 88.0982C49.1903 86.3563 49.209 84.5251 49.1978 82.8958L49.1908 82.2004C49.1893 82.1132 49.2656 82.0414 49.3612 82.0401Z" fill="#253368"/>
<path fill-rule="evenodd" clip-rule="evenodd" d="M50.6452 79.878V82.4091C50.6452 82.7396 50.3689 83.0102 50.0193 83.0201C48.8597 83.0517 46.2828 83.0798 43.9452 82.8094C43.6192 82.7715 43.373 82.5121 43.373 82.2019V79.8219C43.373 79.4817 43.6652 79.2068 44.0257 79.211C45.3505 79.2259 48.3693 79.2587 50.0039 79.2668C50.3597 79.2688 50.6452 79.5417 50.6452 79.878Z" fill="#E4EBF7"/>
<path fill-rule="evenodd" clip-rule="evenodd" d="M49.8946 80.3146L49.894 81.9902C49.8937 82.2087 49.6682 82.388 49.3831 82.3944C48.437 82.4149 46.3345 82.4328 44.4277 82.253C44.1616 82.2278 43.9609 82.0559 43.9609 81.8505L43.9616 80.2753C43.9616 80.0501 44.2003 79.8683 44.4943 79.8711C45.5753 79.8815 48.0382 79.9039 49.3717 79.9101C49.6617 79.9112 49.8946 80.0921 49.8946 80.3146Z" fill="#253368"/>
<path fill-rule="evenodd" clip-rule="evenodd" d="M43.9812 82.5759L50.1202 80.0748L49.8667 79.5654L43.6768 82.1128L43.9812 82.5759Z" fill="#E4EBF7"/>
<path fill-rule="evenodd" clip-rule="evenodd" d="M43.7178 80.1556L49.8712 82.6276L50.1142 82.1137L43.8892 79.6387L43.7178 80.1556Z" fill="#E4EBF7"/>
<path d="M37.1921 49.1603C37.2192 49.1129 37.2796 49.0917 37.3335 49.108L37.3511 49.1148L39.9038 50.3318C39.9615 50.3593 39.9838 50.4243 39.9537 50.477C39.9266 50.5244 39.8662 50.5456 39.8124 50.5294L39.7947 50.5225L37.242 49.3055C37.1843 49.278 37.162 49.213 37.1921 49.1603Z" fill="#253368"/>
<path d="M44.6276 51.8518C44.6914 51.84 44.7536 51.8776 44.7665 51.9358L44.7847 52.0215L44.8218 52.2093L44.8319 52.2628C44.8807 52.5233 44.9295 52.8165 44.975 53.136C45.1498 54.3632 45.2286 55.6136 45.1574 56.7819C45.1214 57.3717 45.0474 57.9227 44.9314 58.4278C44.918 58.4859 44.8556 58.5232 44.7919 58.511C44.7282 58.4988 44.6874 58.4417 44.7007 58.3836C44.8141 57.8899 44.8868 57.3495 44.9221 56.77C44.9924 55.6166 44.9144 54.3789 44.7413 53.1637C44.7019 52.8868 44.6599 52.6299 44.6177 52.3973L44.5897 52.2463L44.5442 52.0186C44.5404 52.0004 44.5375 51.987 44.5356 51.9786C44.5226 51.9204 44.5638 51.8636 44.6276 51.8518Z" fill="#253368"/>
<path fill-rule="evenodd" clip-rule="evenodd" d="M47.7544 125.95C50.7505 125.176 52.5541 122.392 51.8538 119.622L44.9652 92.3748C44.0216 88.6426 39.8494 86.3899 35.8124 87.4331C31.775 88.4762 29.5149 92.3907 30.8542 96.0209L40.6304 122.522C41.6244 125.216 44.7584 126.724 47.7544 125.95Z" fill="#4E5C93"/>
<path fill-rule="evenodd" clip-rule="evenodd" d="M46.3775 149.32L55.1828 148.159C57.3183 146.044 54.592 143.265 54.592 143.265L52.0762 120.688C51.7357 117.678 48.72 115.532 45.4395 115.965C42.1589 116.397 39.9316 119.235 40.5381 122.21L45.1878 144.892C45.1878 144.892 43.6371 148.003 46.3775 149.32Z" fill="#4E5C93"/>
<path fill-rule="evenodd" clip-rule="evenodd" d="M60.2587 159.914L49.3263 160.634L46.4912 149.337L54.9165 148.227L55.3872 155.761L60.5663 158.819C61.0929 159.13 60.884 159.873 60.2587 159.914Z" fill="#253368"/>
<path fill-rule="evenodd" clip-rule="evenodd" d="M73.2774 80.015L52.8096 80.1904C52.0314 80.1971 51.4688 79.5141 51.6919 78.8333L56.0069 65.6643C56.1523 65.2214 56.5966 64.9162 57.1032 64.912L77.571 64.7364C78.3493 64.7297 78.9119 65.413 78.6891 66.0937L74.3737 79.2625C74.2284 79.7054 73.7841 80.0105 73.2774 80.015Z" fill="#4E5C93"/>
<path fill-rule="evenodd" clip-rule="evenodd" d="M74.3155 80.015L53.8477 80.1904C53.0695 80.1971 52.5069 79.5141 52.7299 78.8333L57.045 65.6643C57.1904 65.2214 57.6346 64.9162 58.1413 64.912L78.6091 64.7364C79.3874 64.7297 79.9503 65.413 79.7272 66.0937L75.4118 79.2625C75.2665 79.7054 74.8222 80.0105 74.3155 80.015Z" fill="#253368"/>
<path fill-rule="evenodd" clip-rule="evenodd" d="M53.8559 79.9923C48.3609 80.1772 35.4909 81.1126 28.016 80.1957C28.016 80.1957 20.2526 79.0639 21.3529 72.8244C22.4258 66.7406 30.2931 68.2474 30.2931 68.2474C39.1362 69.7603 49.4504 71.8104 54.4138 72.4988C54.4138 72.4988 57.0544 72.9865 57.1291 76.0529C57.2179 79.6908 53.8559 79.9923 53.8559 79.9923Z" fill="#FFC2BD"/>
<path fill-rule="evenodd" clip-rule="evenodd" d="M33.9689 73.8302C33.9689 73.8302 36.8737 61.0152 37.0565 58.6882C37.2166 56.6524 37.0049 51.274 31.0125 50.4623C26.2203 49.813 23.8406 53.0849 22.8687 55.7941C21.1896 60.4747 21.1272 66.6651 21.1002 72.2982C21.1002 72.2982 20.8276 78.6934 27.5734 78.9133C33.2819 79.0993 33.9689 73.8302 33.9689 73.8302Z" fill="#FFC2BD"/>
<path fill-rule="evenodd" clip-rule="evenodd" d="M35.3546 67.2573C35.7768 65.1707 37.2473 59.4372 37.3051 58.704C37.4652 56.6685 36.9723 50.9875 30.9799 50.1754C26.1877 49.5261 23.7828 53.0777 22.8109 55.7866C22.1408 57.6547 21.5017 63.6109 21.2461 65.8282L35.3546 67.2573Z" fill="#597EF7"/>
<path d="M36.3794 59.8059C36.4443 59.8102 36.4931 59.8617 36.4884 59.921L36.4726 60.1067C36.3352 61.6294 35.7981 65.7808 35.4704 67.4006C35.4601 67.4513 35.4123 67.4874 35.3575 67.4886L35.339 67.4877L21.2556 65.7789C21.1911 65.7711 21.1458 65.717 21.1544 65.6581C21.1621 65.6051 21.2108 65.5663 21.2675 65.5647L21.2867 65.5656L35.2583 67.2609L35.2679 67.2129C35.6058 65.4569 36.1359 61.3201 36.2487 59.9635L36.2534 59.9055C36.258 59.8463 36.3145 59.8017 36.3794 59.8059Z" fill="#253368"/>
<path fill-rule="evenodd" clip-rule="evenodd" d="M54.4396 80.4141C54.4396 80.4141 52.2225 80.13 51.2165 77.3986C50.3055 74.9249 52.0326 74.0206 52.0326 74.0206C52.0326 74.0206 54.3524 72.1977 57.557 71.9812C59.6571 71.8392 63.6007 71.0238 63.9774 71.989C64.4687 73.2476 60.4179 73.4276 60.0827 74.3454C59.4039 76.2048 65.5417 76.5489 66.5959 77.1217C68.2145 78.0008 65.9838 81.2794 59.9696 81.2811C58.3289 81.2817 56.7287 81.0946 54.4396 80.4141Z" fill="#FFC2BD"/>
<path d="M60.3501 77.2712C60.3737 77.2173 60.4408 77.1911 60.4998 77.2126L60.6042 77.2489L60.715 77.2856C60.7737 77.3047 60.8376 77.3249 60.9063 77.346C61.2339 77.4467 61.6032 77.5475 62.0061 77.6415C63.5268 77.9967 65.0764 78.1596 66.5272 78.0261L66.7067 78.0081C66.7699 78.0011 66.8273 78.0423 66.8348 78.0999C66.8424 78.1576 66.7974 78.21 66.7342 78.2169L66.7091 78.2196C65.1819 78.3833 63.5492 78.219 61.949 77.8454C61.5404 77.7499 61.1656 77.6477 60.8327 77.5453L60.6993 77.5036C60.657 77.4901 60.6169 77.477 60.5791 77.4645L60.4143 77.4079C60.3552 77.3864 60.3264 77.3252 60.3501 77.2712Z" fill="#D18888"/>
<path d="M59.3258 78.7108C59.3435 78.655 59.4074 78.6228 59.4685 78.6389C61.8197 79.259 63.8493 79.4022 65.396 79.2782L65.5093 79.2683C65.545 79.265 65.5785 79.2616 65.6098 79.2582L65.7413 79.2421C65.8041 79.2326 65.8634 79.2713 65.8738 79.3287C65.8842 79.386 65.8418 79.4401 65.779 79.4496L65.6845 79.4618L65.5868 79.4724C65.5521 79.4759 65.5152 79.4793 65.4762 79.4827L65.4162 79.4877C63.8425 79.6139 61.7847 79.4687 59.4046 78.841C59.3434 78.8249 59.3082 78.7666 59.3258 78.7108Z" fill="#D18888"/>
<path d="M58.4694 79.841C58.4903 79.7862 58.556 79.7573 58.6161 79.7764L59.3694 80.0332C59.3921 80.0407 59.4123 80.0472 59.4293 80.0526C60.3911 80.3565 61.4513 80.5009 63.0791 80.4612C63.1427 80.4596 63.1957 80.5054 63.1974 80.5635C63.1991 80.6216 63.1489 80.6699 63.0853 80.6714C61.4762 80.7108 60.4031 80.5718 59.4365 80.277L59.2959 80.2326C59.0772 80.1607 58.6257 80.0023 58.5402 79.975C58.4801 79.9559 58.4484 79.8959 58.4694 79.841Z" fill="#D18888"/>
<path d="M63.9594 71.8852C64.0222 71.8758 64.0814 71.9146 64.0917 71.9719C64.156 72.3292 64.063 72.5352 63.7508 72.7232C63.6379 72.7911 63.495 72.8591 63.2736 72.9529L62.4892 73.2779C62.3132 73.349 62.1301 73.4125 61.8151 73.5154L61.694 73.5548C60.9262 73.8044 60.6057 73.936 60.3585 74.1405C60.0546 74.392 60.0127 74.6966 60.2812 75.1393C60.5873 75.6442 61.6768 76.074 63.2862 76.41C63.9781 76.5544 64.72 76.6721 65.4621 76.7651C65.6786 76.7922 65.8822 76.8156 66.0693 76.8354L66.3351 76.862L66.4506 76.8725C66.5139 76.8778 66.5606 76.929 66.5548 76.9868C66.549 77.0447 66.4929 77.0873 66.4296 77.082L66.2623 77.0666L66.1541 77.0558C65.9358 77.0337 65.6926 77.0063 65.4308 76.9735C64.6825 76.8798 63.9341 76.761 63.2348 76.615L63.0363 76.5726C61.4695 76.2293 60.4166 75.797 60.0796 75.2412C59.761 74.7159 59.8176 74.3042 60.2038 73.9846C60.4735 73.7615 60.7945 73.626 61.5382 73.3823L61.9731 73.2393C62.1658 73.1744 62.2991 73.1256 62.432 73.0709L63.1766 72.7621L63.2847 72.7156C63.4362 72.6492 63.5413 72.5973 63.6239 72.5476C63.8586 72.4063 63.9142 72.2831 63.8643 72.006C63.854 71.9487 63.8966 71.8946 63.9594 71.8852Z" fill="#D18888"/>
<path fill-rule="evenodd" clip-rule="evenodd" d="M74.9695 71.5535C74.9695 71.5535 79.2327 69.5216 80.3081 69.9303C81.9752 70.5636 79.8091 73.29 79.8091 73.29C79.8091 73.29 80.9883 74.576 79.511 75.8596C79.6355 77.5302 78.4894 78.0025 78.4894 78.0025C78.4894 78.0025 79.0735 79.4055 77.406 79.9592C75.7389 80.5126 72.7284 79.3957 73.8348 77.5588C72.9505 76.1288 74.331 75.3264 74.331 75.3264C74.331 75.3264 73.7703 74.0426 75.1324 73.2914C74.3814 72.5756 74.5268 71.7695 74.9695 71.5535Z" fill="#FFC2BD"/>
<path d="M78.9718 72.3437C79.0337 72.3302 79.0959 72.365 79.1107 72.4215C79.1241 72.4724 79.0945 72.5234 79.0433 72.543L79.0255 72.5483L75.1587 73.3937C75.0968 73.4073 75.0346 73.3724 75.0198 73.3159C75.0065 73.2651 75.036 73.214 75.0872 73.1945L75.105 73.1891L78.9718 72.3437Z" fill="#D18888"/>
<path d="M80.1994 69.8936C80.2217 69.8392 80.2881 69.8115 80.3477 69.8319C81.084 70.083 81.2152 70.7213 80.9048 71.5916C80.8032 71.8763 80.6572 72.1775 80.4784 72.4862C80.3525 72.7036 80.2176 72.9121 80.0828 73.1044L80.0145 73.2003L79.9439 73.2961L79.9722 73.3456C80.02 73.4312 80.0677 73.5278 80.1122 73.6332C80.3007 74.08 80.3754 74.5396 80.2681 74.9738C80.1811 75.3256 79.9771 75.6377 79.642 75.897L79.6315 75.9048L79.6343 75.9265C79.7236 76.7161 79.5274 77.299 79.1378 77.7008L79.0982 77.7404C78.93 77.9033 78.7608 78.0075 78.6241 78.066L78.5831 78.0823L78.1516 79.4331C78.1356 79.4833 78.0822 79.5143 78.0271 79.5081L78.0088 79.5047C77.9538 79.49 77.9199 79.4413 77.9266 79.391L77.9304 79.3742L78.3781 77.9732C78.3887 77.94 78.4164 77.9137 78.4523 77.9028C78.4782 77.895 78.5286 77.8749 78.5955 77.8398C78.7093 77.78 78.8236 77.6997 78.9305 77.5961C79.3118 77.2267 79.5032 76.6684 79.3957 75.8726C79.3907 75.8361 79.407 75.8 79.4386 75.7772C79.768 75.5394 79.9627 75.2535 80.0433 74.9275C80.139 74.5403 80.0708 74.1202 79.8972 73.7089C79.8661 73.6351 79.8333 73.566 79.8001 73.5026L79.7669 73.4411C79.7406 73.394 79.7205 73.3613 79.7096 73.345C79.6856 73.3091 79.6875 73.2635 79.7143 73.2292L79.7617 73.1668L79.8223 73.0843C79.8435 73.055 79.8657 73.0238 79.8887 72.991C80.0203 72.8033 80.1519 72.5997 80.2747 72.3878C80.4478 72.089 80.5886 71.7985 80.6856 71.5265C80.9628 70.7494 80.8561 70.2298 80.267 70.0289C80.2074 70.0086 80.1771 69.948 80.1994 69.8936Z" fill="#D18888"/>
<path d="M74.332 75.2217L77.776 75.2747C77.8397 75.2757 77.8904 75.3236 77.8893 75.3816C77.8883 75.4339 77.8458 75.4766 77.7909 75.4839L77.7722 75.485L74.3281 75.432C74.2645 75.431 74.2138 75.3832 74.2149 75.3251C74.2158 75.2728 74.2584 75.2301 74.3133 75.2228L74.332 75.2217Z" fill="#D18888"/>
<path d="M73.8478 77.4546L77.0753 77.7862C77.1385 77.7927 77.184 77.8447 77.1769 77.9025C77.1705 77.9544 77.1236 77.9933 77.0682 77.9958L77.0495 77.9952L73.8221 77.6637C73.7588 77.6572 73.7133 77.6051 73.7205 77.5474C73.7269 77.4954 73.7737 77.4566 73.8291 77.4541L73.8478 77.4546Z" fill="#D18888"/>
<path d="M30.1619 68.2312L54.5371 72.2198C54.5997 72.23 54.6414 72.2847 54.6302 72.3419C54.6201 72.3933 54.5706 72.4293 54.5151 72.4285L54.4964 72.4268L30.1213 68.4383C30.0586 68.428 30.017 68.3733 30.0282 68.3162C30.0383 68.2647 30.0878 68.2287 30.1433 68.2295L30.1619 68.2312Z" fill="#D18888"/>
</svg>
