<svg width="148" height="22" viewBox="0 0 148 22" fill="none" xmlns="http://www.w3.org/2000/svg">
<path d="M10.165 21.348C8.11567 21.348 6.35633 20.913 4.887 20.043C3.41767 19.1537 2.28667 17.926 1.494 16.36C0.701333 14.7747 0.305 12.9477 0.305 10.879C0.305 8.81033 0.701333 6.98333 1.494 5.398C2.28667 3.81267 3.41767 2.57533 4.887 1.686C6.35633 0.796666 8.11567 0.352 10.165 0.352C12.601 0.352 14.5923 0.960999 16.139 2.179C17.705 3.37767 18.6813 5.06933 19.068 7.254H14.979C14.7277 6.152 14.1863 5.29167 13.355 4.673C12.543 4.035 11.4603 3.716 10.107 3.716C8.23167 3.716 6.76233 4.354 5.699 5.63C4.63567 6.906 4.104 8.65567 4.104 10.879C4.104 13.1023 4.63567 14.852 5.699 16.128C6.76233 17.3847 8.23167 18.013 10.107 18.013C11.4603 18.013 12.543 17.723 13.355 17.143C14.1863 16.5437 14.7277 15.722 14.979 14.678H19.068C18.6813 16.766 17.705 18.3997 16.139 19.579C14.5923 20.7583 12.601 21.348 10.165 21.348ZM22.244 21L29.668 0.699999H33.844L41.268 21H37.324L35.7 16.302H27.783L26.13 21H22.244ZM28.798 13.402H34.685L31.727 4.963L28.798 13.402ZM47.9076 21V3.687H41.9916V0.699999H57.5646V3.687H51.6196V21H47.9076ZM58.307 21L65.731 0.699999H69.907L77.331 21H73.387L71.763 16.302H63.846L62.193 21H58.307ZM64.861 13.402H70.748L67.79 4.963L64.861 13.402ZM81.396 21V0.699999H85.108V18.1H94.098V21H81.396ZM101.179 21V13.779L94.364 0.699999H98.569L103.064 10.067L107.53 0.699999H111.677L104.891 13.779V21H101.179ZM121.275 21.348C119.786 21.348 118.472 21.0967 117.331 20.594C116.19 20.072 115.291 19.3373 114.634 18.39C113.977 17.4233 113.638 16.2537 113.619 14.881H117.534C117.573 15.8283 117.911 16.6307 118.549 17.288C119.206 17.926 120.105 18.245 121.246 18.245C122.232 18.245 123.015 18.013 123.595 17.549C124.175 17.0657 124.465 16.4277 124.465 15.635C124.465 14.8037 124.204 14.156 123.682 13.692C123.179 13.228 122.503 12.851 121.652 12.561C120.801 12.271 119.893 11.9617 118.926 11.633C117.36 11.0917 116.161 10.3957 115.33 9.545C114.518 8.69433 114.112 7.56333 114.112 6.152C114.093 4.95333 114.373 3.92867 114.953 3.078C115.552 2.208 116.364 1.541 117.389 1.077C118.414 0.593666 119.593 0.352 120.927 0.352C122.28 0.352 123.469 0.593666 124.494 1.077C125.538 1.56033 126.35 2.237 126.93 3.107C127.529 3.977 127.848 5.01133 127.887 6.21H123.914C123.895 5.49467 123.614 4.86633 123.073 4.325C122.551 3.76433 121.816 3.484 120.869 3.484C120.057 3.46467 119.371 3.66767 118.81 4.093C118.269 4.499 117.998 5.09833 117.998 5.891C117.998 6.56767 118.211 7.109 118.636 7.515C119.061 7.90167 119.641 8.23033 120.376 8.501C121.111 8.77167 121.952 9.06167 122.899 9.371C123.904 9.719 124.823 10.125 125.654 10.589C126.485 11.053 127.152 11.6717 127.655 12.445C128.158 13.199 128.409 14.1753 128.409 15.374C128.409 16.4373 128.138 17.4233 127.597 18.332C127.056 19.2407 126.253 19.9753 125.19 20.536C124.127 21.0773 122.822 21.348 121.275 21.348ZM137.57 21V3.687H131.654V0.699999H147.227V3.687H141.282V21H137.57Z" fill="white"/>
</svg>
