<svg width="31" height="31" viewBox="0 0 31 31" fill="none" xmlns="http://www.w3.org/2000/svg">
<path d="M19.375 21.9583C19.375 22.6435 19.6472 23.3006 20.1316 23.785C20.6161 24.2695 21.2732 24.5417 21.9583 24.5417H24.5417C25.2268 24.5417 25.8839 24.2695 26.3684 23.785C26.8528 23.3006 27.125 22.6435 27.125 21.9583V9.04168C27.125 8.35653 26.8528 7.69945 26.3684 7.21498C25.8839 6.73052 25.2268 6.45834 24.5417 6.45834H21.9583C21.2732 6.45834 20.6161 6.73052 20.1316 7.21498C19.6472 7.69945 19.375 8.35653 19.375 9.04168M11.625 21.9583V9.04168V21.9583ZM11.625 21.9583C11.625 22.6435 11.3528 23.3006 10.8684 23.785C10.3839 24.2695 9.72681 24.5417 9.04167 24.5417H6.45833C5.77319 24.5417 5.11611 24.2695 4.63164 23.785C4.14717 23.3006 3.875 22.6435 3.875 21.9583V9.04168C3.875 8.35653 4.14717 7.69945 4.63164 7.21498C5.11611 6.73052 5.77319 6.45834 6.45833 6.45834H9.04167C9.72681 6.45834 10.3839 6.73052 10.8684 7.21498C11.3528 7.69945 11.625 8.35653 11.625 9.04168V21.9583ZM11.625 21.9583C11.625 22.6435 11.8972 23.3006 12.3816 23.785C12.8661 24.2695 13.5232 24.5417 14.2083 24.5417H16.7917C17.4768 24.5417 18.1339 24.2695 18.6184 23.785C19.1028 23.3006 19.375 22.6435 19.375 21.9583H11.625ZM11.625 9.04168C11.625 8.35653 11.8972 7.69945 12.3816 7.21498C12.8661 6.73052 13.5232 6.45834 14.2083 6.45834H16.7917C17.4768 6.45834 18.1339 6.73052 18.6184 7.21498C19.1028 7.69945 19.375 8.35653 19.375 9.04168H11.625ZM19.375 21.9583V9.04168V21.9583Z" stroke="white" stroke-width="2" stroke-linecap="round" stroke-linejoin="round"/>
</svg>
