<svg id="Layer_2" data-name="Layer 2" xmlns="http://www.w3.org/2000/svg" viewBox="0 0 1400 351"><defs><style>.cls-1{fill:#fff;}.cls-12,.cls-13,.cls-16,.cls-17,.cls-19,.cls-2,.cls-22,.cls-3,.cls-9{fill:#443356;}.cls-3{opacity:0.21;}.cls-4{fill:#c8accc;}.cls-5{fill:#784882;}.cls-6{fill:#f0d7f4;}.cls-7{fill:#ae88b7;}.cls-8,.cls-9{opacity:0.4;}.cls-10{fill:#c3adf7;}.cls-11{fill:#c659d1;}.cls-12{opacity:0.24;}.cls-13{opacity:0.35;}.cls-14{fill:#a444b2;}.cls-15{fill:#9d7ca3;}.cls-16{opacity:0.33;}.cls-17{opacity:0.28;}.cls-18{fill:#d1c9d3;}.cls-19{opacity:0.25;}.cls-20{fill:#e4dded;}.cls-21{fill:#f2f2f2;}.cls-22{opacity:0.54;}</style></defs><title>sample-01</title><polyline class="cls-1" points="491.31 319.15 491.31 43.42 491.31 32.42 491.31 32.42 480.31 32.42 43.61 32.42 32.61 32.42 32.61 43.42 32.61 321.48"/><path class="cls-2" d="M32.61,322.48a1,1,0,0,1-1-1V32.42a1,1,0,0,1,1-1h458.7a1,1,0,0,1,1,1V319.15a1,1,0,0,1-2,0V33.42H33.61V321.48A1,1,0,0,1,32.61,322.48Z"/><rect class="cls-3" x="43.61" y="43.42" width="436.7" height="33.25"/><rect class="cls-3" x="43.61" y="135.13" width="436.7" height="25.25"/><rect class="cls-3" x="43.61" y="227.51" width="436.7" height="25.25"/><path class="cls-2" d="M746.94,112.75a1,1,0,0,1-.54-.16,1,1,0,0,1-.46-.84V27.13a1,1,0,0,1,.46-.84L785,1.3A1,1,0,1,1,786.11,3L747.94,27.67v82.52l62.89-28.82V5.61a1,1,0,0,1,2,0V82a1,1,0,0,1-.58.91l-64.89,29.74A1.06,1.06,0,0,1,746.94,112.75Z"/><path class="cls-2" d="M827.13,76a1,1,0,0,1-.54-.16,1,1,0,0,1-.46-.84V40.12a1,1,0,0,1,2,0V73.44l90.55-41.5V3.25a1,1,0,0,1,2,0V32.58a1,1,0,0,1-.58.91L827.55,75.91A1,1,0,0,1,827.13,76Z"/><path class="cls-2" d="M827.13,33.72a1,1,0,0,1-1-1V2.14a1,1,0,1,1,2,0V32.72A1,1,0,0,1,827.13,33.72Z"/><path class="cls-2" d="M942.22,23.25a1,1,0,0,1-.54-.16,1,1,0,0,1-.46-.84V5a1,1,0,1,1,2,0V20.69L987.27.5a1,1,0,1,1,.84,1.82L942.63,23.16A1,1,0,0,1,942.22,23.25Z"/><path class="cls-2" d="M1084.86,318.42H942.22a1,1,0,0,1-1-1V40.12a1,1,0,0,1,.6-.92l88.28-38a1,1,0,0,1,1.32.53,1,1,0,0,1-.53,1.31L943.22,40.77V316.42h140.64V3.41a1,1,0,0,1,2,0v314A1,1,0,0,1,1084.86,318.42Z"/><path class="cls-2" d="M1369.62,318.42h-248.3a1,1,0,0,1-1-1V6.1a1,1,0,1,1,2,0V316.42h246.3V8.71a1,1,0,0,1,2,0V317.42A1,1,0,0,1,1369.62,318.42Z"/><path class="cls-2" d="M811.83,318.42H746.94a1,1,0,0,1-1-1V283.58a1,1,0,1,1,2,0v32.84h62.89V97.78l-62.89,27.08V273.71a1,1,0,1,1-2,0V124.2a1,1,0,0,1,.6-.92l64.9-27.94a1,1,0,0,1,1.39.92V317.42A1,1,0,0,1,811.83,318.42Z"/><path class="cls-2" d="M827.13,229.71a1,1,0,0,1-1-1v-139a1,1,0,0,1,.61-.92L919.29,48.9a1,1,0,0,1,1.39.92V182a1,1,0,1,1-2,0V51.34l-90.55,39V228.71A1,1,0,0,1,827.13,229.71Z"/><path class="cls-2" d="M919.68,318.42H827.13a1,1,0,0,1-1-1V245.37a1,1,0,0,1,2,0v71.05h90.55V187.59a1,1,0,0,1,2,0V317.42A1,1,0,0,1,919.68,318.42Z"/><path class="cls-2" d="M759.31,101.07a1,1,0,0,1-1-1V33.73a1,1,0,0,1,.45-.84L807.61,1.3A1,1,0,1,1,808.69,3l-48.38,31.3v65.79A1,1,0,0,1,759.31,101.07Z"/><path class="cls-2" d="M759.31,107.08a1,1,0,0,1-.91-.58,1,1,0,0,1,.49-1.33l51.94-23.8V3.25a1,1,0,0,1,2,0V82a1,1,0,0,1-.58.91L759.72,107A1,1,0,0,1,759.31,107.08Z"/><path class="cls-2" d="M839.5,70.33a1,1,0,0,1-.54-.16,1,1,0,0,1-.46-.84V2.14a1,1,0,1,1,2,0V67.77l78.18-35.83V6.59a1,1,0,0,1,2,0v26a1,1,0,0,1-.58.91L839.92,70.24A1.06,1.06,0,0,1,839.5,70.33Z"/><path class="cls-2" d="M811.83,318.42H759.31a1,1,0,0,1-1-1V130.81a1,1,0,0,1,.6-.92l48.19-20.75a1,1,0,1,1,.79,1.84l-47.58,20.49v185h50.52V108.19a1,1,0,1,1,2,0V317.42A1,1,0,0,1,811.83,318.42Z"/><path class="cls-2" d="M919.68,318.42H839.5a1,1,0,0,1-1-1V96.28a1,1,0,0,1,.61-.92l80.19-33.3a1,1,0,0,1,.94.09,1,1,0,0,1,.44.83V181.71a1,1,0,0,1-2,0V64.48L840.5,97V316.42h78.18V191.56a1,1,0,0,1,2,0V317.42A1,1,0,0,1,919.68,318.42Z"/><path class="cls-2" d="M1084.86,318.42H958.28a1,1,0,0,1-1-1V46.72a1,1,0,0,1,.61-.92L1050.7,6.48a1,1,0,1,1,.78,1.84l-92.2,39.07v269h124.58V4.47a1,1,0,0,1,2,0v313A1,1,0,0,1,1084.86,318.42Z"/><path class="cls-2" d="M1369.62,318.42h-231a1,1,0,0,1,0-2h230V11.89a1,1,0,0,1,2,0V317.42A1,1,0,0,1,1369.62,318.42Z"/><path class="cls-2" d="M1138.61,311.71a1,1,0,0,1-1-1V8.47a1,1,0,0,1,2,0V310.71A1,1,0,0,1,1138.61,311.71Z"/><path class="cls-2" d="M958.28,47.72a1,1,0,0,1-.38-.07L941.84,41a1,1,0,0,1-.55-1.3,1,1,0,0,1,1.31-.55l16.06,6.61a1,1,0,0,1-.38,1.92Z"/><path class="cls-2" d="M839.43,97.28c-.94,0-8.6-.22-13.13-7.06a1,1,0,1,1,1.66-1.1c4.14,6.24,11.45,6.17,11.52,6.16a1,1,0,0,1,1,1,1,1,0,0,1-1,1Z"/><path class="cls-2" d="M759.31,34.73a1,1,0,0,1-.47-.11L746.47,28a1,1,0,0,1,.94-1.77l12.37,6.61a1,1,0,0,1-.47,1.88Z"/><path class="cls-2" d="M759.31,131.81a1,1,0,0,1-.47-.12l-12.37-6.61a1,1,0,1,1,.94-1.76l12.37,6.61a1,1,0,0,1-.47,1.88Z"/><path class="cls-2" d="M1391.17,331.12H882.33a1,1,0,0,1,0-2h508.84a1,1,0,0,1,0,2Z"/><path class="cls-2" d="M447.91,331.12H431.57a1,1,0,0,1,0-2h16.34a1,1,0,0,1,0,2Z"/><path class="cls-2" d="M298.54,331.12H8.64a1,1,0,1,1,0-2h289.9a1,1,0,1,1,0,2Z"/><polyline class="cls-4" points="83.11 74.04 83.11 126.27 70.82 126.27 70.82 74.04 79.26 74.04"/><path class="cls-2" d="M83.11,127.27H70.82a1,1,0,0,1-1-1V74a1,1,0,0,1,1-1h8.44a1,1,0,0,1,0,2H71.82v50.23H82.11V74a1,1,0,0,1,2,0v52.23A1,1,0,0,1,83.11,127.27Z"/><path class="cls-2" d="M125.68,127.27h-8.34a1,1,0,0,1-1-1V85.45a1,1,0,0,1,1-1h8.34a1,1,0,0,1,1,1v37.68a1,1,0,0,1-2,0V86.45h-6.34v38.82h7.34a1,1,0,0,1,0,2Z"/><rect class="cls-4" x="83.11" y="67.45" width="12.29" height="58.81"/><path class="cls-2" d="M95.4,127.27H83.11a1,1,0,0,1-1-1V67.45a1,1,0,0,1,1-1H95.4a1,1,0,0,1,1,1v58.82A1,1,0,0,1,95.4,127.27Zm-11.29-2H94.4V68.45H84.11Z"/><polyline class="cls-4" points="98.97 71.84 105.06 71.84 105.06 126.27 95.4 126.27 95.4 71.84"/><path class="cls-2" d="M105.06,127.27H95.4a1,1,0,0,1-1-1V71.84a1,1,0,0,1,2,0v53.43h7.66V72.84H99a1,1,0,0,1,0-2h6.09a1,1,0,0,1,1,1v54.43A1,1,0,0,1,105.06,127.27Z"/><rect class="cls-4" x="151.09" y="71.84" width="5.71" height="54.42" transform="translate(20.01 -25.73) rotate(10.22)"/><path class="cls-2" d="M151.93,127.34h-.18l-5.62-1a1,1,0,0,1-.64-.41,1,1,0,0,1-.16-.75L155,71.59a1,1,0,0,1,1.16-.81l5.62,1a1,1,0,0,1,.64.41,1,1,0,0,1,.16.75l-9.65,53.56A1,1,0,0,1,151.93,127.34Zm-4.46-2.82,3.65.66,9.3-51.59-3.65-.66Z"/><rect class="cls-5" x="136.66" y="76.67" width="9.66" height="49.6"/><path class="cls-2" d="M146.31,127.27h-9.65a1,1,0,0,1-1-1V76.67a1,1,0,0,1,1-1h9.65a1,1,0,0,1,1,1v49.6A1,1,0,0,1,146.31,127.27Zm-8.65-2h7.65V77.67h-7.65Z"/><rect class="cls-6" x="105.06" y="67.45" width="12.29" height="58.81"/><path class="cls-2" d="M117.34,127.27H105.06a1,1,0,0,1-1-1V67.45a1,1,0,0,1,1-1h12.28a1,1,0,0,1,1,1v58.82A1,1,0,0,1,117.34,127.27Zm-11.28-2h10.28V68.45H106.06Z"/><rect class="cls-4" x="161.67" y="67.45" width="10.53" height="58.81"/><path class="cls-2" d="M172.21,127.27H161.67a1,1,0,0,1-1-1V67.45a1,1,0,0,1,1-1h10.54a1,1,0,0,1,1,1v58.82A1,1,0,0,1,172.21,127.27Zm-9.54-2h8.54V68.45h-8.54Z"/><circle class="cls-2" cx="192.62" cy="105.86" r="20.41"/><path class="cls-7" d="M213,88.4v36a1.84,1.84,0,0,0,1.84,1.84h4.67a1.83,1.83,0,0,0,1.83-1.84V55.58a2.17,2.17,0,0,0-2.16-2.17h-4A2.17,2.17,0,0,0,213,55.58V83.23"/><path class="cls-2" d="M219.53,127.27h-4.67a2.84,2.84,0,0,1-2.84-2.84v-36a1,1,0,0,1,2,0v36a.85.85,0,0,0,.84.84h4.67a.84.84,0,0,0,.83-.84V55.58a1.16,1.16,0,0,0-1.16-1.17h-4A1.17,1.17,0,0,0,214,55.58V83.23a1,1,0,0,1-2,0V55.58a3.17,3.17,0,0,1,3.17-3.17h4a3.17,3.17,0,0,1,3.16,3.17v68.85A2.84,2.84,0,0,1,219.53,127.27Z"/><rect class="cls-4" x="221.36" y="66.58" width="5.71" height="59.69"/><path class="cls-2" d="M227.07,127.27h-5.71a1,1,0,0,1-1-1V66.58a1,1,0,0,1,1-1h5.71a1,1,0,0,1,1,1v59.69A1,1,0,0,1,227.07,127.27Zm-4.71-2h3.71V67.58h-3.71Z"/><rect class="cls-4" x="227.07" y="53.41" width="10.97" height="72.86"/><path class="cls-2" d="M238,127.27h-11a1,1,0,0,1-1-1V53.41a1,1,0,0,1,1-1h11a1,1,0,0,1,1,1v72.86A1,1,0,0,1,238,127.27Zm-10-2h9V54.41h-9Z"/><rect class="cls-6" x="238.04" y="59.99" width="8.34" height="66.27"/><path class="cls-2" d="M246.38,127.27H238a1,1,0,0,1-1-1V60a1,1,0,0,1,1-1h8.34a1,1,0,0,1,1,1v66.28A1,1,0,0,1,246.38,127.27Zm-7.34-2h6.34V61H239Z"/><path class="cls-4" d="M248.55,53.41h8a2.17,2.17,0,0,1,2.17,2.17v68.69a2,2,0,0,1-2,2h-8.29a2,2,0,0,1-2-2V55.58A2.17,2.17,0,0,1,248.55,53.41Z"/><path class="cls-2" d="M256.67,127.27h-8.29a3,3,0,0,1-3-3V55.58a3.17,3.17,0,0,1,3.17-3.17h7.95a3.17,3.17,0,0,1,3.17,3.17v68.69A3,3,0,0,1,256.67,127.27Zm-8.12-72.86a1.17,1.17,0,0,0-1.17,1.17v68.69a1,1,0,0,0,1,1h8.29a1,1,0,0,0,1-1V55.58a1.17,1.17,0,0,0-1.17-1.17Z"/><rect class="cls-4" x="258.67" y="71.84" width="8.34" height="54.42"/><path class="cls-2" d="M267,127.27h-8.34a1,1,0,0,1-1-1V71.84a1,1,0,0,1,1-1H267a1,1,0,0,1,1,1v54.43A1,1,0,0,1,267,127.27Zm-7.34-2H266V72.84h-6.34Z"/><polyline class="cls-4" points="277.1 122.87 277.1 53.41 267.01 53.41 267.01 126.27 277.1 126.27"/><path class="cls-2" d="M277.1,127.27H267a1,1,0,0,1-1-1V53.41a1,1,0,0,1,1-1H277.1a1,1,0,0,1,1,1v69.46a1,1,0,0,1-2,0V54.41H268v70.86h9.09a1,1,0,0,1,0,2Z"/><rect class="cls-4" x="325.91" y="63.94" width="10.09" height="62.32"/><path class="cls-2" d="M336,127.27h-10.1a1,1,0,0,1-1-1V63.94a1,1,0,0,1,1-1H336a1,1,0,0,1,1,1v62.33A1,1,0,0,1,336,127.27Zm-9.1-2H335V64.94h-8.1Z"/><polyline class="cls-4" points="368.64 79.31 368.64 126.27 384.02 126.27 384.02 79.31 372.76 79.31"/><path class="cls-2" d="M384,127.27H368.64a1,1,0,0,1-1-1v-47a1,1,0,0,1,2,0v46H383v-45H372.76a1,1,0,0,1,0-2H384a1,1,0,0,1,1,1v47A1,1,0,0,1,384,127.27Z"/><rect class="cls-4" x="407.29" y="56.48" width="15.38" height="69.78"/><path class="cls-2" d="M422.68,127.27H407.29a1,1,0,0,1-1-1V56.48a1,1,0,0,1,1-1h15.39a1,1,0,0,1,1,1v69.79A1,1,0,0,1,422.68,127.27Zm-14.39-2h13.39V57.48H408.29Z"/><rect class="cls-7" x="444.1" y="70.97" width="15.38" height="55.3"/><path class="cls-2" d="M459.49,127.27H444.1a1,1,0,0,1-1-1V71a1,1,0,0,1,1-1h15.39a1,1,0,0,1,1,1v55.3A1,1,0,0,1,459.49,127.27Zm-14.39-2h13.39V72H445.1Z"/><rect class="cls-4" x="422.68" y="63.94" width="10.67" height="62.32"/><path class="cls-2" d="M433.35,127.27H422.68a1,1,0,0,1-1-1V63.94a1,1,0,0,1,1-1h10.67a1,1,0,0,1,1,1v62.33A1,1,0,0,1,433.35,127.27Zm-9.67-2h8.67V64.94h-8.67Z"/><rect class="cls-4" x="352.4" y="70.53" width="10.09" height="55.74"/><path class="cls-2" d="M362.49,127.27H352.4a1,1,0,0,1-1-1V70.53a1,1,0,0,1,1-1h10.09a1,1,0,0,1,1,1v55.74A1,1,0,0,1,362.49,127.27Zm-9.09-2h8.09V71.53H353.4Z"/><rect class="cls-7" x="393.62" y="70.53" width="13.38" height="55.74"/><path class="cls-2" d="M407,127.27H393.62a1,1,0,0,1-1-1V70.53a1,1,0,0,1,1-1H407a1,1,0,0,1,1,1v55.74A1,1,0,0,1,407,127.27Zm-12.38-2H406V71.53H394.62Z"/><rect class="cls-6" x="433.35" y="56.48" width="10.75" height="69.78"/><path class="cls-2" d="M444.1,127.27H433.35a1,1,0,0,1-1-1V56.48a1,1,0,0,1,1-1H444.1a1,1,0,0,1,1,1v69.79A1,1,0,0,1,444.1,127.27Zm-9.75-2h8.75V57.48h-8.75Z"/><rect class="cls-4" x="362.49" y="63.94" width="6.14" height="62.32"/><path class="cls-2" d="M368.64,127.27h-6.15a1,1,0,0,1-1-1V63.94a1,1,0,0,1,1-1h6.15a1,1,0,0,1,1,1v62.33A1,1,0,0,1,368.64,127.27Zm-5.15-2h4.15V64.94h-4.15Z"/><rect class="cls-6" x="336.01" y="56.48" width="16.39" height="69.78"/><path class="cls-2" d="M352.4,127.27H336a1,1,0,0,1-1-1V56.48a1,1,0,0,1,1-1H352.4a1,1,0,0,1,1,1v69.79A1,1,0,0,1,352.4,127.27Zm-15.39-2H351.4V57.48H337Z"/><rect class="cls-4" x="286.5" y="53.13" width="12.19" height="72.86" transform="translate(-13.26 80.42) rotate(-15.31)"/><path class="cls-2" d="M296.34,127.31a1.06,1.06,0,0,1-.5-.13,1,1,0,0,1-.47-.61L276.14,56.3a1,1,0,0,1,.7-1.23l11.75-3.22a1,1,0,0,1,1.23.7l19.24,70.28a1,1,0,0,1-.7,1.22l-11.76,3.22A1.27,1.27,0,0,1,296.34,127.31Zm-18-70.58L297,125.08l9.82-2.69L288.16,54Z"/><path class="cls-2" d="M472.93,136.64H48a1,1,0,0,1,0-2h424.9a1,1,0,0,1,0,2Z"/><path class="cls-2" d="M480.31,136.64a1,1,0,0,1-1-1v-8.37H43.61a1,1,0,0,1,0-2h436.7a1,1,0,0,1,1,1v9.37A1,1,0,0,1,480.31,136.64Z"/><path class="cls-2" d="M480.31,228.4H43.61a1,1,0,0,1-1-1V218a1,1,0,0,1,2,0v8.37h434.7V219h-430a1,1,0,1,1,0-2h431a1,1,0,0,1,1,1v9.37A1,1,0,0,1,480.31,228.4Z"/><path class="cls-2" d="M114,219H99.63A23.69,23.69,0,0,1,76,195.36V160.7a3.36,3.36,0,0,1,3.36-3.37h55a3.37,3.37,0,0,1,3.37,3.37v34.66A23.7,23.7,0,0,1,114,219Zm-34.66-59.7A1.37,1.37,0,0,0,78,160.7v34.66A21.69,21.69,0,0,0,99.63,217H114a21.69,21.69,0,0,0,21.67-21.67V160.7a1.38,1.38,0,0,0-1.37-1.37Z"/><path class="cls-2" d="M112.19,218.53h-.09c-11.23-.95-18.6-4.42-23-19.35a60,60,0,0,1-2.35-17V158.33a1,1,0,0,1,1-1H133a4.68,4.68,0,0,1,4.67,4.67v26.18a30.82,30.82,0,0,1-25.29,30.34Zm-23.47-59.2v22.81A57.92,57.92,0,0,0,91,198.61c4.51,15.22,12.24,17.15,21.15,17.92a28.83,28.83,0,0,0,23.52-28.35V162a2.68,2.68,0,0,0-2.67-2.67Z"/><path class="cls-2" d="M104,218.76a15.71,15.71,0,0,1-2.72-.24h0A30.81,30.81,0,0,1,76,188.18v-27a3.9,3.9,0,0,1,3.89-3.9h46a1,1,0,0,1,1,1v29.85c0,9.81-4.67,20.31-11.63,26.12A17.52,17.52,0,0,1,104,218.76Zm-2.37-2.21c4.22.76,8.5-.54,12.38-3.78,6.43-5.37,10.91-15.48,10.91-24.59V159.33h-45a1.89,1.89,0,0,0-1.89,1.9v27a28.81,28.81,0,0,0,23.64,28.37Z"/><path class="cls-2" d="M110.37,210.25a1,1,0,0,1-.44-.1,1,1,0,0,1-.46-1.34,45.37,45.37,0,0,0,4.35-18.88v-31.6a1,1,0,1,1,2,0v31.6a47.43,47.43,0,0,1-4.55,19.76A1,1,0,0,1,110.37,210.25Z"/><path class="cls-2" d="M104.68,210.25a1,1,0,0,1-.9-.56,47.43,47.43,0,0,1-4.55-19.76v-31.6a1,1,0,0,1,2,0v31.6a45.22,45.22,0,0,0,4.35,18.88,1,1,0,0,1-.47,1.34A1,1,0,0,1,104.68,210.25Z"/><path class="cls-2" d="M128,159.33H87.72a1,1,0,0,1,0-2H128a1,1,0,0,1,0,2Z"/><path class="cls-2" d="M136.66,172.06H77a1,1,0,0,1,0-2h59.69a1,1,0,1,1,0,2Z"/><path class="cls-2" d="M136.66,184.79H77a1,1,0,0,1,0-2h59.69a1,1,0,0,1,0,2Z"/><path class="cls-2" d="M135.34,197.52H79.6a1,1,0,0,1,0-2h55.74a1,1,0,0,1,0,2Z"/><path class="cls-2" d="M128,210.25H85.67a1,1,0,0,1,0-2H128a1,1,0,0,1,0,2Z"/><path class="cls-2" d="M107.47,219a1,1,0,0,1-1-1v-8.78a1,1,0,0,1,2,0V218A1,1,0,0,1,107.47,219Z"/><rect class="cls-7" x="152.12" y="181.32" width="50.82" height="32.32" rx="5.57" ry="5.57"/><path class="cls-2" d="M197.37,214.64H157.69a6.58,6.58,0,0,1-6.57-6.58V186.89a6.58,6.58,0,0,1,6.57-6.57h39.68a6.58,6.58,0,0,1,6.57,6.57v21.17A6.58,6.58,0,0,1,197.37,214.64Zm-39.68-32.32a4.58,4.58,0,0,0-4.57,4.57v21.17a4.58,4.58,0,0,0,4.57,4.58h39.68a4.58,4.58,0,0,0,4.57-4.58V186.89a4.58,4.58,0,0,0-4.57-4.57Z"/><path class="cls-2" d="M161.67,219a1,1,0,0,1-.89-.55l-2.21-4.39a1,1,0,0,1,.44-1.35,1,1,0,0,1,1.34.45l2.22,4.39a1,1,0,0,1-.9,1.45Z"/><path class="cls-2" d="M192.61,219a1,1,0,0,1-.56-.18,1,1,0,0,1-.26-1.39l3-4.39a1,1,0,1,1,1.65,1.13l-3,4.39A1,1,0,0,1,192.61,219Z"/><path class="cls-4" d="M206,145.17h4a2.17,2.17,0,0,1,2.17,2.17v68.86a1.83,1.83,0,0,1-1.83,1.83h-4.67a1.83,1.83,0,0,1-1.83-1.83V147.34A2.17,2.17,0,0,1,206,145.17Z"/><path class="cls-2" d="M210.31,219h-4.67a2.84,2.84,0,0,1-2.83-2.84V147.33a3.17,3.17,0,0,1,3.16-3.16h4a3.17,3.17,0,0,1,3.17,3.16v68.86A2.84,2.84,0,0,1,210.31,219ZM206,146.17a1.16,1.16,0,0,0-1.16,1.16v68.86a.84.84,0,0,0,.83.84h4.67a.85.85,0,0,0,.84-.84V147.33a1.17,1.17,0,0,0-1.17-1.16Z"/><rect class="cls-4" x="212.15" y="158.34" width="5.71" height="59.69"/><path class="cls-2" d="M217.85,219h-5.7a1,1,0,0,1-1-1v-59.7a1,1,0,0,1,1-1h5.7a1,1,0,0,1,1,1V218A1,1,0,0,1,217.85,219Zm-4.7-2h3.7v-57.7h-3.7Z"/><rect class="cls-6" x="217.85" y="145.17" width="10.97" height="72.86"/><path class="cls-2" d="M228.82,219h-11a1,1,0,0,1-1-1V145.17a1,1,0,0,1,1-1h11a1,1,0,0,1,1,1V218A1,1,0,0,1,228.82,219Zm-10-2h9V146.17h-9Z"/><rect class="cls-4" x="228.82" y="151.75" width="8.34" height="66.27"/><path class="cls-2" d="M237.16,219h-8.34a1,1,0,0,1-1-1V151.75a1,1,0,0,1,1-1h8.34a1,1,0,0,1,1,1V218A1,1,0,0,1,237.16,219Zm-7.34-2h6.34V152.75h-6.34Z"/><path class="cls-4" d="M239.33,145.17h8a2.17,2.17,0,0,1,2.17,2.17V216a2,2,0,0,1-2,2h-8.29a2,2,0,0,1-2-2V147.34A2.17,2.17,0,0,1,239.33,145.17Z"/><path class="cls-2" d="M247.45,219h-8.29a3,3,0,0,1-3-3v-68.7a3.17,3.17,0,0,1,3.17-3.16h8a3.17,3.17,0,0,1,3.16,3.16V216A3,3,0,0,1,247.45,219Zm-8.12-72.86a1.17,1.17,0,0,0-1.17,1.16V216a1,1,0,0,0,1,1h8.29a1,1,0,0,0,1-1v-68.7a1.16,1.16,0,0,0-1.16-1.16Z"/><rect class="cls-4" x="249.45" y="163.6" width="8.34" height="54.42"/><path class="cls-2" d="M257.79,219h-8.34a1,1,0,0,1-1-1V163.6a1,1,0,0,1,1-1h8.34a1,1,0,0,1,1,1V218A1,1,0,0,1,257.79,219Zm-7.34-2h6.34V164.6h-6.34Z"/><rect class="cls-6" x="257.79" y="145.17" width="10.09" height="72.86"/><path class="cls-2" d="M267.89,219h-10.1a1,1,0,0,1-1-1V145.17a1,1,0,0,1,1-1h10.1a1,1,0,0,1,1,1V218A1,1,0,0,1,267.89,219Zm-9.1-2h8.1V146.17h-8.1Z"/><rect class="cls-4" x="440.18" y="155.7" width="10.09" height="62.32" transform="translate(890.45 373.73) rotate(-180)"/><path class="cls-2" d="M450.27,219H440.18a1,1,0,0,1-1-1V155.7a1,1,0,0,1,1-1h10.09a1,1,0,0,1,1,1V218A1,1,0,0,1,450.27,219Zm-9.09-2h8.09V156.7h-8.09Z"/><rect class="cls-4" x="299.33" y="156.13" width="7.57" height="62.32" transform="translate(76.12 -87.35) rotate(18.71)"/><path class="cls-2" d="M296.7,219a.87.87,0,0,1-.32-.06l-7.17-2.43a1,1,0,0,1-.63-1.27l20-59a1,1,0,0,1,1.27-.63l7.17,2.43a1,1,0,0,1,.57.5,1,1,0,0,1,.06.77l-20,59a1,1,0,0,1-.51.57A1,1,0,0,1,296.7,219ZM290.8,215l5.27,1.79,19.36-57.14-5.28-1.78Z"/><rect class="cls-7" x="293.93" y="140.61" width="7.57" height="78.07" transform="matrix(0.95, 0.32, -0.32, 0.95, 73.38, -86.02)"/><path class="cls-2" d="M288.77,218.83a.93.93,0,0,1-.32-.05l-7.17-2.43a1,1,0,0,1-.58-.5,1.08,1.08,0,0,1-.05-.77l25.05-73.94a1,1,0,0,1,.51-.57,1,1,0,0,1,.76,0l7.17,2.43a1,1,0,0,1,.63,1.26l-25,73.95A1,1,0,0,1,288.77,218.83Zm-5.9-4.05,5.28,1.79,24.4-72-5.27-1.79Z"/><rect class="cls-4" x="279.03" y="160.64" width="7.57" height="58.17" transform="translate(97.55 -96.03) rotate(23.19)"/><path class="cls-2" d="M274.84,219a1.09,1.09,0,0,1-.39-.08l-7-3a1.05,1.05,0,0,1-.53-.55,1,1,0,0,1,0-.77l22.9-53.47a1,1,0,0,1,1.31-.53l7,3a1,1,0,0,1,.53,1.32l-22.91,53.47A1,1,0,0,1,274.84,219Zm-5.64-4.51,5.12,2.19L296.44,165l-5.12-2.19Z"/><rect class="cls-4" x="395.18" y="167.08" width="12.37" height="50.94" transform="translate(802.73 385.11) rotate(-180)"/><path class="cls-2" d="M407.55,219H395.18a1,1,0,0,1-1-1V167.08a1,1,0,0,1,1-1h12.37a1,1,0,0,1,1,1V218A1,1,0,0,1,407.55,219Zm-11.37-2h10.37V168.08H396.18Z"/><rect class="cls-4" x="353.51" y="148.24" width="15.38" height="69.78" transform="translate(722.4 366.27) rotate(-180)"/><path class="cls-2" d="M368.89,219H353.51a1,1,0,0,1-1-1V148.24a1,1,0,0,1,1-1h15.38a1,1,0,0,1,1,1V218A1,1,0,0,1,368.89,219Zm-14.38-2h13.38V149.24H354.51Z"/><rect class="cls-4" x="316.7" y="162.72" width="15.38" height="55.3" transform="translate(648.78 380.75) rotate(-180)"/><path class="cls-2" d="M332.08,219H316.7a1,1,0,0,1-1-1V162.72a1,1,0,0,1,1-1h15.38a1,1,0,0,1,1,1V218A1,1,0,0,1,332.08,219Zm-14.38-2h13.38V163.72H317.7Z"/><rect class="cls-4" x="342.83" y="155.7" width="10.67" height="62.32" transform="translate(696.34 373.73) rotate(-180)"/><path class="cls-2" d="M353.51,219H342.83a1,1,0,0,1-1-1V155.7a1,1,0,0,1,1-1h10.68a1,1,0,0,1,1,1V218A1,1,0,0,1,353.51,219Zm-9.68-2h8.68V156.7h-8.68Z"/><rect class="cls-4" x="413.69" y="162.29" width="10.09" height="55.74" transform="translate(837.48 380.31) rotate(-180)"/><path class="cls-2" d="M423.79,219h-10.1a1,1,0,0,1-1-1V162.29a1,1,0,0,1,1-1h10.1a1,1,0,0,1,1,1V218A1,1,0,0,1,423.79,219Zm-9.1-2h8.1V163.29h-8.1Z"/><rect class="cls-6" x="369.19" y="162.29" width="13.38" height="55.74" transform="translate(751.75 380.31) rotate(-180)"/><path class="cls-2" d="M382.56,219H369.19a1,1,0,0,1-1-1V162.29a1,1,0,0,1,1-1h13.37a1,1,0,0,1,1,1V218A1,1,0,0,1,382.56,219Zm-12.37-2h11.37V163.29H370.19Z"/><rect class="cls-4" x="332.08" y="148.24" width="10.75" height="69.78" transform="translate(674.92 366.27) rotate(-180)"/><path class="cls-2" d="M342.83,219H332.08a1,1,0,0,1-1-1V148.24a1,1,0,0,1,1-1h10.75a1,1,0,0,1,1,1V218A1,1,0,0,1,342.83,219Zm-9.75-2h8.75V149.24h-8.75Z"/><rect class="cls-7" x="407.55" y="155.7" width="6.14" height="62.32" transform="translate(821.24 373.73) rotate(-180)"/><path class="cls-2" d="M413.69,219h-6.14a1,1,0,0,1-1-1V155.7a1,1,0,0,1,1-1h6.14a1,1,0,0,1,1,1V218A1,1,0,0,1,413.69,219Zm-5.14-2h4.14V156.7h-4.14Z"/><rect class="cls-5" x="423.79" y="148.24" width="16.39" height="69.78" transform="translate(863.96 366.27) rotate(-180)"/><path class="cls-2" d="M440.18,219H423.79a1,1,0,0,1-1-1V148.24a1,1,0,0,1,1-1h16.39a1,1,0,0,1,1,1V218A1,1,0,0,1,440.18,219Zm-15.39-2h14.39V149.24H424.79Z"/><rect class="cls-6" x="371.29" y="247.46" width="10.09" height="62.32" transform="translate(752.68 557.24) rotate(-180)"/><path class="cls-2" d="M381.39,310.78h-10.1a1,1,0,0,1-1-1V247.46a1,1,0,0,1,1-1h10.1a1,1,0,0,1,1,1v62.32A1,1,0,0,1,381.39,310.78Zm-9.1-2h8.1V248.46h-8.1Z"/><rect class="cls-4" x="323.28" y="262.82" width="15.38" height="46.96" transform="translate(661.95 572.61) rotate(-180)"/><path class="cls-2" d="M338.67,310.78H323.28a1,1,0,0,1-1-1v-47a1,1,0,0,1,1-1h15.39a1,1,0,0,1,1,1v47A1,1,0,0,1,338.67,310.78Zm-14.39-2h13.39v-45H324.28Z"/><rect class="cls-6" x="407.29" y="240" width="15.38" height="69.78"/><path class="cls-2" d="M422.68,310.78H407.29a1,1,0,0,1-1-1V240a1,1,0,0,1,1-1h15.39a1,1,0,0,1,1,1v69.78A1,1,0,0,1,422.68,310.78Zm-14.39-2h13.39V241H408.29Z"/><rect class="cls-6" x="444.1" y="254.48" width="15.38" height="55.3"/><path class="cls-2" d="M459.49,310.78H444.1a1,1,0,0,1-1-1v-55.3a1,1,0,0,1,1-1h15.39a1,1,0,0,1,1,1v55.3A1,1,0,0,1,459.49,310.78Zm-14.39-2h13.39v-53.3H445.1Z"/><rect class="cls-4" x="422.68" y="247.46" width="10.67" height="62.32"/><path class="cls-2" d="M433.35,310.78H422.68a1,1,0,0,1-1-1V247.46a1,1,0,0,1,1-1h10.67a1,1,0,0,1,1,1v62.32A1,1,0,0,1,433.35,310.78Zm-9.67-2h8.67V248.46h-8.67Z"/><rect class="cls-4" x="344.81" y="254.04" width="10.09" height="55.74" transform="translate(699.71 563.83) rotate(-180)"/><path class="cls-2" d="M354.9,310.78H344.81a1,1,0,0,1-1-1V254a1,1,0,0,1,1-1H354.9a1,1,0,0,1,1,1v55.74A1,1,0,0,1,354.9,310.78Zm-9.09-2h8.09V255h-8.09Z"/><rect class="cls-4" x="393.62" y="254.04" width="13.38" height="55.74"/><path class="cls-2" d="M407,310.78H393.62a1,1,0,0,1-1-1V254a1,1,0,0,1,1-1H407a1,1,0,0,1,1,1v55.74A1,1,0,0,1,407,310.78Zm-12.38-2H406V255H394.62Z"/><rect class="cls-4" x="433.35" y="240" width="10.75" height="69.78"/><path class="cls-2" d="M444.1,310.78H433.35a1,1,0,0,1-1-1V240a1,1,0,0,1,1-1H444.1a1,1,0,0,1,1,1v69.78A1,1,0,0,1,444.1,310.78Zm-9.75-2h8.75V241h-8.75Z"/><rect class="cls-6" x="338.67" y="247.46" width="6.14" height="62.32" transform="translate(683.47 557.24) rotate(-180)"/><path class="cls-2" d="M344.81,310.78h-6.14a1,1,0,0,1-1-1V247.46a1,1,0,0,1,1-1h6.14a1,1,0,0,1,1,1v62.32A1,1,0,0,1,344.81,310.78Zm-5.14-2h4.14V248.46h-4.14Z"/><rect class="cls-7" x="354.9" y="240" width="16.39" height="69.78" transform="translate(726.2 549.78) rotate(-180)"/><path class="cls-2" d="M371.29,310.78H354.9a1,1,0,0,1-1-1V240a1,1,0,0,1,1-1h16.39a1,1,0,0,1,1,1v69.78A1,1,0,0,1,371.29,310.78Zm-15.39-2h14.39V241H355.9Z"/><rect class="cls-5" x="293.94" y="236.65" width="12.19" height="72.86" transform="translate(-61.45 88.89) rotate(-15.31)"/><path class="cls-2" d="M303.77,310.82a1,1,0,0,1-.49-.13,1,1,0,0,1-.47-.6l-19.23-70.27a1,1,0,0,1,.7-1.23L296,235.37a1,1,0,0,1,.76.09,1,1,0,0,1,.47.61l19.23,70.27a1,1,0,0,1-.7,1.23L304,310.79Zm-18-70.57,18.7,68.35,9.83-2.69-18.7-68.35Z"/><path class="cls-2" d="M480.31,320.15H43.61a1,1,0,0,1-1-1v-9.37a1,1,0,0,1,1-1h436.7a1,1,0,0,1,1,1v9.37A1,1,0,0,1,480.31,320.15Zm-435.7-2h434.7v-7.37H44.61Z"/><path class="cls-7" d="M60,240H160.38a1.81,1.81,0,0,1,1.81,1.81V303.6a6.19,6.19,0,0,1-6.19,6.19H64.41a6.19,6.19,0,0,1-6.19-6.19V241.81A1.81,1.81,0,0,1,60,240Z"/><path class="cls-2" d="M156,310.78H64.41a7.2,7.2,0,0,1-7.19-7.19V241.81A2.81,2.81,0,0,1,60,239H160.38a2.81,2.81,0,0,1,2.81,2.81v61.78A7.19,7.19,0,0,1,156,310.78ZM60,241a.81.81,0,0,0-.81.81v61.78a5.19,5.19,0,0,0,5.19,5.19H156a5.19,5.19,0,0,0,5.19-5.19V241.81a.81.81,0,0,0-.81-.81Z"/><path class="cls-2" d="M152.05,307.19a1,1,0,0,1-.56-.17,1,1,0,0,1-.27-1.39,7.09,7.09,0,0,0,1.22-4V240a1,1,0,0,1,2,0v61.63a9.11,9.11,0,0,1-1.56,5.12A1,1,0,0,1,152.05,307.19Z"/><path class="cls-2" d="M134.53,310.78a1,1,0,1,1,0-2,7.15,7.15,0,0,0,7.15-7.15V240a1,1,0,0,1,2,0v61.63A9.15,9.15,0,0,1,134.53,310.78Z"/><path class="cls-2" d="M123.77,310.78a1,1,0,1,1,0-2,7.15,7.15,0,0,0,7.15-7.15V267.21a1,1,0,0,1,2,0v34.42A9.15,9.15,0,0,1,123.77,310.78Z"/><path class="cls-2" d="M131.92,252a1,1,0,0,1-1-1V240a1,1,0,0,1,2,0v11A1,1,0,0,1,131.92,252Z"/><path class="cls-2" d="M113,310.78a1,1,0,1,1,0-2,7.15,7.15,0,0,0,7.15-7.15V263.26a1,1,0,0,1,2,0v38.37A9.15,9.15,0,0,1,113,310.78Z"/><path class="cls-2" d="M121.16,252a1,1,0,0,1-1-1V240a1,1,0,0,1,2,0v11A1,1,0,0,1,121.16,252Z"/><path class="cls-2" d="M66.51,310.78a9.15,9.15,0,0,1-9.15-9.15V247.68a1,1,0,0,1,2,0v53.95a7.15,7.15,0,0,0,7.15,7.15,1,1,0,0,1,0,2Z"/><path class="cls-2" d="M77.27,310.78a9.15,9.15,0,0,1-9.15-9.15V240a1,1,0,0,1,2,0v61.63a7.15,7.15,0,0,0,7.15,7.15,1,1,0,0,1,0,2Z"/><path class="cls-2" d="M81.27,307.19a1,1,0,0,1-.83-.44,9.11,9.11,0,0,1-1.56-5.12V240a1,1,0,0,1,2,0v61.63a7.09,7.09,0,0,0,1.22,4,1,1,0,0,1-.27,1.39A1,1,0,0,1,81.27,307.19Z"/><path class="cls-2" d="M98.79,310.78a9.16,9.16,0,0,1-9.15-9.15V260a1,1,0,0,1,2,0v41.67a7.15,7.15,0,0,0,7.15,7.15,1,1,0,1,1,0,2Z"/><path class="cls-2" d="M90.64,252a1,1,0,0,1-1-1V240a1,1,0,0,1,2,0v11A1,1,0,0,1,90.64,252Z"/><path class="cls-2" d="M109.67,310.78a9.16,9.16,0,0,1-9.15-9.15V263.26a1,1,0,0,1,2,0v38.37a7.15,7.15,0,0,0,7.15,7.15,1,1,0,1,1,0,2Z"/><path class="cls-2" d="M101.52,248.68a1,1,0,0,1-1-1V240a1,1,0,0,1,2,0v7.68A1,1,0,0,1,101.52,248.68Z"/><path class="cls-2" d="M111,305.46a1,1,0,0,1-1-1V268.53a1,1,0,0,1,2,0v35.93A1,1,0,0,1,111,305.46Z"/><path class="cls-2" d="M111,252.63a1,1,0,0,1-1-1V241a1,1,0,0,1,2,0v10.63A1,1,0,0,1,111,252.63Z"/><path class="cls-2" d="M156.86,252.63H128.62a1,1,0,0,1,0-2h28.24a1,1,0,0,1,0,2Z"/><path class="cls-2" d="M93.94,252.63H58.36a1,1,0,0,1,0-2H93.94a1,1,0,0,1,0,2Z"/><path class="cls-2" d="M162.19,264.26H128.62a1,1,0,0,1,0-2h33.57a1,1,0,0,1,0,2Z"/><path class="cls-2" d="M85.8,264.26H58.36a1,1,0,0,1,0-2H85.8a1,1,0,1,1,0,2Z"/><path class="cls-2" d="M162.19,275.89h-99a1,1,0,1,1,0-2h99a1,1,0,0,1,0,2Z"/><path class="cls-2" d="M156.86,287.52H58.36a1,1,0,0,1,0-2h98.5a1,1,0,0,1,0,2Z"/><path class="cls-2" d="M162.19,299.15h-99a1,1,0,1,1,0-2h99a1,1,0,0,1,0,2Z"/><rect class="cls-1" x="90.64" y="251.63" width="41.28" height="11.63" rx="2.51" ry="2.51"/><path class="cls-2" d="M129.42,264.26H93.15a3.51,3.51,0,0,1-3.51-3.5v-6.62a3.51,3.51,0,0,1,3.51-3.51h36.27a3.51,3.51,0,0,1,3.5,3.51v6.62A3.5,3.5,0,0,1,129.42,264.26ZM93.15,252.63a1.52,1.52,0,0,0-1.51,1.51v6.62a1.51,1.51,0,0,0,1.51,1.5h36.27a1.5,1.5,0,0,0,1.5-1.5v-6.62a1.51,1.51,0,0,0-1.5-1.51Z"/><path class="cls-7" d="M182.38,240H282.73a1.81,1.81,0,0,1,1.81,1.81V303.6a6.19,6.19,0,0,1-6.19,6.19H186.76a6.19,6.19,0,0,1-6.19-6.19V241.81a1.81,1.81,0,0,1,1.81-1.81Z"/><path class="cls-2" d="M278.35,310.78H186.76a7.19,7.19,0,0,1-7.19-7.19V241.81a2.81,2.81,0,0,1,2.81-2.81H282.73a2.81,2.81,0,0,1,2.81,2.81v61.78A7.19,7.19,0,0,1,278.35,310.78Zm-96-69.78a.81.81,0,0,0-.81.81v61.78a5.19,5.19,0,0,0,5.19,5.19h91.59a5.19,5.19,0,0,0,5.19-5.19V241.81a.81.81,0,0,0-.81-.81Z"/><path class="cls-2" d="M274.4,307.19a1,1,0,0,1-.56-.17,1,1,0,0,1-.27-1.39,7.09,7.09,0,0,0,1.22-4V240a1,1,0,1,1,2,0v61.63a9.11,9.11,0,0,1-1.56,5.12A1,1,0,0,1,274.4,307.19Z"/><path class="cls-2" d="M256.88,310.78a1,1,0,0,1,0-2,7.15,7.15,0,0,0,7.15-7.15V240a1,1,0,0,1,2,0v61.63A9.15,9.15,0,0,1,256.88,310.78Z"/><path class="cls-2" d="M246.12,310.78a1,1,0,0,1,0-2,7.15,7.15,0,0,0,7.15-7.15V267.21a1,1,0,0,1,2,0v34.42A9.16,9.16,0,0,1,246.12,310.78Z"/><path class="cls-2" d="M254.27,252a1,1,0,0,1-1-1V240a1,1,0,0,1,2,0v11A1,1,0,0,1,254.27,252Z"/><path class="cls-2" d="M235.36,310.78a1,1,0,0,1,0-2,7.15,7.15,0,0,0,7.15-7.15V263.26a1,1,0,0,1,2,0v38.37A9.16,9.16,0,0,1,235.36,310.78Z"/><path class="cls-2" d="M243.51,252a1,1,0,0,1-1-1V240a1,1,0,0,1,2,0v11A1,1,0,0,1,243.51,252Z"/><path class="cls-2" d="M188.85,310.78a9.15,9.15,0,0,1-9.14-9.15V247.68a1,1,0,0,1,2,0v53.95a7.15,7.15,0,0,0,7.14,7.15,1,1,0,1,1,0,2Z"/><path class="cls-2" d="M199.62,310.78a9.15,9.15,0,0,1-9.15-9.15V240a1,1,0,0,1,2,0v61.63a7.15,7.15,0,0,0,7.15,7.15,1,1,0,0,1,0,2Z"/><path class="cls-2" d="M203.62,307.19a1,1,0,0,1-.83-.44,9.11,9.11,0,0,1-1.56-5.12V240a1,1,0,0,1,2,0v61.63a7.09,7.09,0,0,0,1.22,4,1,1,0,0,1-.27,1.39A1,1,0,0,1,203.62,307.19Z"/><path class="cls-2" d="M221.14,310.78a9.15,9.15,0,0,1-9.15-9.15V260a1,1,0,0,1,2,0v41.67a7.15,7.15,0,0,0,7.15,7.15,1,1,0,0,1,0,2Z"/><path class="cls-2" d="M213,252a1,1,0,0,1-1-1V240a1,1,0,0,1,2,0v11A1,1,0,0,1,213,252Z"/><path class="cls-2" d="M232,310.78a9.16,9.16,0,0,1-9.15-9.15V263.26a1,1,0,0,1,2,0v38.37a7.15,7.15,0,0,0,7.15,7.15,1,1,0,0,1,0,2Z"/><path class="cls-2" d="M223.87,248.68a1,1,0,0,1-1-1V240a1,1,0,0,1,2,0v7.68A1,1,0,0,1,223.87,248.68Z"/><path class="cls-2" d="M233.38,305.46a1,1,0,0,1-1-1V268.53a1,1,0,0,1,2,0v35.93A1,1,0,0,1,233.38,305.46Z"/><path class="cls-2" d="M233.38,252.63a1,1,0,0,1-1-1V241a1,1,0,0,1,2,0v10.63A1,1,0,0,1,233.38,252.63Z"/><path class="cls-2" d="M279.21,252.63H251a1,1,0,0,1,0-2h28.24a1,1,0,0,1,0,2Z"/><path class="cls-2" d="M216.29,252.63H180.71a1,1,0,0,1,0-2h35.58a1,1,0,0,1,0,2Z"/><path class="cls-2" d="M284.54,264.26H251a1,1,0,0,1,0-2h33.57a1,1,0,0,1,0,2Z"/><path class="cls-2" d="M208.14,264.26H180.71a1,1,0,0,1,0-2h27.43a1,1,0,0,1,0,2Z"/><path class="cls-2" d="M284.54,275.89h-99a1,1,0,0,1,0-2h99a1,1,0,1,1,0,2Z"/><path class="cls-2" d="M279.21,287.52h-98.5a1,1,0,0,1,0-2h98.5a1,1,0,1,1,0,2Z"/><path class="cls-2" d="M284.54,299.15h-99a1,1,0,0,1,0-2h99a1,1,0,1,1,0,2Z"/><rect class="cls-1" x="212.99" y="251.63" width="41.28" height="11.63" rx="2.51" ry="2.51"/><path class="cls-2" d="M251.76,264.26H215.5a3.51,3.51,0,0,1-3.51-3.5v-6.62a3.51,3.51,0,0,1,3.51-3.51h36.26a3.51,3.51,0,0,1,3.51,3.51v6.62A3.51,3.51,0,0,1,251.76,264.26ZM215.5,252.63a1.52,1.52,0,0,0-1.51,1.51v6.62a1.51,1.51,0,0,0,1.51,1.5h36.26a1.51,1.51,0,0,0,1.51-1.5v-6.62a1.52,1.52,0,0,0-1.51-1.51Z"/><path class="cls-2" d="M711.88,32.43a1,1,0,0,1-.57-1.82L752.56,2.42a1,1,0,0,1,1.13,1.65L712.44,32.26A1,1,0,0,1,711.88,32.43Z"/><path class="cls-2" d="M43.61,331.12a1,1,0,0,1-1-1V43.42a1,1,0,0,1,1-1h436.7a1,1,0,0,1,0,2H44.61v285.7A1,1,0,0,1,43.61,331.12Z"/><path class="cls-2" d="M480.31,324.09a1,1,0,0,1-1-1v-188a1,1,0,0,1,2,0v188A1,1,0,0,1,480.31,324.09Z"/><path class="cls-2" d="M480.31,136.13a1,1,0,0,1-1-1V43.42a1,1,0,0,1,2,0v91.71A1,1,0,0,1,480.31,136.13Z"/><g class="cls-8"><path class="cls-2" d="M970.64,187.86a1,1,0,0,1-.17-2l105-17.87a1,1,0,0,1,.34,2l-105,17.87Z"/><path class="cls-2" d="M1138.61,159.27a1,1,0,0,1-.17-2l158-26.9a1,1,0,0,1,1.15.82,1,1,0,0,1-.81,1.15l-158,26.9Z"/><path class="cls-2" d="M1166.83,106.37a18,18,0,0,1-3.36-.32,15.42,15.42,0,0,1-11-8.15l-1.28-2.47a13.27,13.27,0,0,0-7.75-6.61,1,1,0,0,1-.63-1.27,1,1,0,0,1,1.26-.63,15.22,15.22,0,0,1,8.89,7.59L1154.2,97a13.49,13.49,0,0,0,9.64,7.11c5.32,1,11.28-.78,16-4.81L1241.42,46c8.9-7.69,20.31-11.09,30.53-9.09A26.47,26.47,0,0,1,1290.87,51a24.52,24.52,0,0,0,17,13c9.4,2,19.68-.76,28.21-7.61a41.07,41.07,0,0,1,22.76-9.31A1,1,0,0,1,1360,48a1,1,0,0,1-.93,1.07,39,39,0,0,0-21.65,8.87c-9,7.23-19.88,10.15-29.87,8a26.49,26.49,0,0,1-18.41-14,24.51,24.51,0,0,0-17.52-13.06c-9.63-1.88-20.41,1.35-28.84,8.65l-61.64,53.28A22.14,22.14,0,0,1,1166.83,106.37Z"/><path class="cls-2" d="M970.64,187.86a1,1,0,0,1-.75-.34,1,1,0,0,1,.09-1.41l41.37-36.22c8.17-7.15,19.31-7.64,25.9-1.13,5.85,5.76,15.81,5.24,23.19-1.22l23.76-20.82a1,1,0,1,1,1.31,1.5L1061.75,149c-8.16,7.16-19.3,7.65-25.9,1.14-5.85-5.76-15.81-5.24-23.18,1.21L971.3,187.62A1,1,0,0,1,970.64,187.86Z"/></g><path class="cls-9" d="M852.72,152.64a1,1,0,0,1-.77-.36,1,1,0,0,1-.11-1.12l12.76-23a11.15,11.15,0,0,1,13.78-5,9.08,9.08,0,0,0,11.49-4.44l7.55-15.21a11.09,11.09,0,0,1,13.22-5.68l4.82,1.48a1,1,0,1,1-.58,1.91l-4.82-1.48a9.11,9.11,0,0,0-10.85,4.67l-7.55,15.2a11.07,11.07,0,0,1-14,5.41,9.14,9.14,0,0,0-11.3,4.07l-11.53,20.81,64.55-21a1,1,0,0,1,1.26.64,1,1,0,0,1-.64,1.26L853,152.6A1.15,1.15,0,0,1,852.72,152.64Z"/><path class="cls-9" d="M966.23,115.64a1,1,0,0,1-.31-2l52.87-17.24-9.07-1.34a28.86,28.86,0,0,1-14.22-6.36,26.8,26.8,0,0,0-34.45.1,1,1,0,0,1-1.29-1.53,28.8,28.8,0,0,1,37-.11A26.79,26.79,0,0,0,1010,93.13l13.28,2a1,1,0,0,1,.16,2l-56.91,18.55A1.18,1.18,0,0,1,966.23,115.64Z"/><path class="cls-2" d="M286.88,350.2a1,1,0,0,1-1-1v-1.5a5.69,5.69,0,0,1,5.68-5.68H409.94a1,1,0,0,1,1,1v4.39a1,1,0,0,1-2,0V344H291.56a3.68,3.68,0,0,0-3.68,3.68v1.5A1,1,0,0,1,286.88,350.2Z"/><path class="cls-2" d="M418.85,347.34a1,1,0,0,1-.48-.12,1,1,0,0,1-.39-1.36l8.31-15.11h-3.23a1,1,0,1,1,0-2H428a1,1,0,0,1,.87.49,1,1,0,0,1,0,1l-9.13,16.59A1,1,0,0,1,418.85,347.34Z"/><path class="cls-2" d="M414.42,348.41a1,1,0,0,1-.87-1.49l8.51-15.09v-7.38a1,1,0,0,1,2,0v7.64a1,1,0,0,1-.13.49l-8.64,15.32A1,1,0,0,1,414.42,348.41Z"/><path class="cls-10" d="M286.88,349.59v-3.7a8,8,0,0,1,2.23-5.56L309,319.49a5.63,5.63,0,0,1,4.07-1.74H425.85a.53.53,0,0,1,.47.79l-13.17,23.91a2.63,2.63,0,0,1-2.32,1.37H292.65a5.77,5.77,0,0,0-5.77,5.77Z"/><path class="cls-2" d="M286.88,350.59a1,1,0,0,1-1-1v-3.7a9.07,9.07,0,0,1,2.5-6.26l19.9-20.83a6.68,6.68,0,0,1,4.8-2.05H425.85a1.51,1.51,0,0,1,1.32.75,1.53,1.53,0,0,1,0,1.52L414,342.93a3.64,3.64,0,0,1-3.2,1.89H292.65a4.78,4.78,0,0,0-4.77,4.77A1,1,0,0,1,286.88,350.59Zm26.2-31.84a4.65,4.65,0,0,0-3.35,1.43L289.83,341a7,7,0,0,0-1.85,3.67,6.73,6.73,0,0,1,4.67-1.87H410.83a1.67,1.67,0,0,0,1.45-.85l12.78-23.22Z"/><path class="cls-11" d="M548.94,215.35l-.17-33.85s7.71-13.4,32.81-20.06l112.43,27,13.77,11.68,3.12,20.6L709,256.09l-17.74,51.66-102.68,8.63-40.22-27.57s-7.9-55.43-7.9-56.47S548.94,215.35,548.94,215.35Z"/><path class="cls-12" d="M668.72,286.5,633,278.25c-23.08-5.32-38.65.39-47.92-14.3a31.07,31.07,0,0,1-4.56-14.46L579.22,231a1.87,1.87,0,0,0-3.69-.27l-5.69,25.94-12.17,25.47,23.72,10,67.26,19.16,20.07-12.45Z"/><path class="cls-11" d="M550.23,178.9c11.68-12.64,33.13-20.43,48.23-24.61a64.42,64.42,0,0,1,14.85-2.3l61.56,11.6c7.32,3.09,15.56,8.33,22.59,13.3a49.72,49.72,0,0,1,18.81,27.43h0a122,122,0,0,1,2,14.78l.64,9.21c1.1,15.82-.49,24.5,5.1,39.44h0c3.92,10.47,5.78,21.34,7.52,32.4L737,335.28H678.47l6-40.1"/><path class="cls-2" d="M678.47,336.28a1,1,0,0,1-.75-.34,1,1,0,0,1-.24-.81l6-40.09a1,1,0,1,1,2,.29l-5.86,38.95h56.21l-5.36-34c-1.82-11.57-3.65-22-7.47-32.2-4.18-11.18-4.39-18.84-4.67-28.54-.1-3.46-.2-7.05-.49-11.18l-.64-9.21a120.26,120.26,0,0,0-1.93-14.66,48.42,48.42,0,0,0-18.41-26.8c-8.64-6.12-16.14-10.54-22.3-13.16L613.24,153a64.44,64.44,0,0,0-14.51,2.26c-15.51,4.29-36.38,12-47.76,24.33a1,1,0,0,1-1.42,0,1,1,0,0,1,0-1.41c11.7-12.67,32.94-20.53,48.69-24.9A66.08,66.08,0,0,1,613.27,151a.89.89,0,0,1,.23,0l61.55,11.61a.83.83,0,0,1,.21.06c6.31,2.66,14,7.17,22.78,13.4a50.47,50.47,0,0,1,19.19,28,121.33,121.33,0,0,1,2,15l.64,9.21c.29,4.17.39,7.78.49,11.27.27,9.51.48,17,4.55,27.89,3.88,10.39,5.72,20.91,7.57,32.59L738,335.12a1,1,0,0,1-.23.81,1,1,0,0,1-.76.35Z"/><path class="cls-2" d="M693.41,324.09h-.08a1,1,0,0,1-.92-1.07l3-39.49a178.49,178.49,0,0,1,5.06-30.12,1,1,0,0,1,1.94.51,176.41,176.41,0,0,0-5,29.76l-3,39.49A1,1,0,0,1,693.41,324.09Z"/><path class="cls-2" d="M551,294.7a1,1,0,0,1-.54-.16,1,1,0,0,1-.3-1.38l5.54-8.62c10.78-16.75,15.37-35.88,19.49-55.63a1,1,0,0,1,1.19-.78,1,1,0,0,1,.77,1.18c-4.16,19.95-8.8,39.27-19.77,56.32l-5.54,8.61A1,1,0,0,1,551,294.7Z"/><path class="cls-2" d="M699.6,316.51l-21.11-43.16a1.09,1.09,0,0,0,.75.26.89.89,0,0,0,.35-.08,1,1,0,0,0,.46-1.4L669.5,250.56a1.11,1.11,0,0,0-1.42-.55,1,1,0,0,0-.57.91l-.86-1.77a3.43,3.43,0,0,0-4.41-1.73,3.17,3.17,0,0,0-1.43,4.35l32.9,67.31a3.6,3.6,0,0,0,3.34,2,3.31,3.31,0,0,0,1.11-.25A3.14,3.14,0,0,0,699.6,316.51Z"/><path class="cls-1" d="M602.44,329.28l95.68-.09c4.2,0,7.08-4.45,6.1-9.41h0c2.79-.93,4.21-4.46,3.15-7.87l-.44-1.42a6.89,6.89,0,0,0-3.07-4l-3-1.72h0a20.52,20.52,0,0,0-3.79-8.7,15.32,15.32,0,0,0-9.24-5.85L670.85,287c-4.37-1.18-10-1-14,1.15-7.24,3.93-11.24,5.2-14.85,10h0a4,4,0,0,1-5.32,2.49L615,292S598.85,296.55,602.44,329.28Z"/><path class="cls-2" d="M602.44,330.28a1,1,0,0,1-1-.89c-3.63-33.19,12.64-38.13,13.33-38.32a1,1,0,0,1,.64,0L637,299.69a3,3,0,0,0,4-1.94.71.71,0,0,1,.13-.22c3-4,6.2-5.65,11-8.15,1.25-.64,2.61-1.34,4.12-2.16,3.9-2.12,9.69-2.61,14.75-1.23L688,289.26a16.3,16.3,0,0,1,9.85,6.22,21.6,21.6,0,0,1,3.88,8.67l2.64,1.49a7.9,7.9,0,0,1,3.52,4.56l.44,1.42c1.12,3.59-.21,7.33-3,8.77a9.62,9.62,0,0,1-1.91,7.23,6.76,6.76,0,0,1-5.3,2.57l-95.68.09ZM615,293.1c-2.07.82-14.5,7-11.68,35.18l94.78-.09a4.78,4.78,0,0,0,3.75-1.84,7.73,7.73,0,0,0,1.37-6.38,1,1,0,0,1,.67-1.14c2.28-.76,3.4-3.73,2.5-6.62l-.44-1.42a5.91,5.91,0,0,0-2.6-3.41l-3-1.72a1,1,0,0,1-.49-.69,19.49,19.49,0,0,0-3.6-8.28,14.28,14.28,0,0,0-8.63-5.47l-17-3.29c-4.67-1.26-9.88-.84-13.34,1-1.53.83-2.9,1.54-4.17,2.19-4.72,2.43-7.59,3.91-10.29,7.47a5,5,0,0,1-6.56,2.92Z"/><path class="cls-13" d="M673.07,324.17a1,1,0,0,1-.89-1.47l5-9.48a21.87,21.87,0,0,0,2.4-11.92,1,1,0,0,1,0-.38l1.87-6a1,1,0,1,1,1.91.59l-1.81,5.8A23.87,23.87,0,0,1,679,314.15l-5,9.48A1,1,0,0,1,673.07,324.17Z"/><path class="cls-14" d="M604,329.5l22.23-.24s-7.65-20.33,3.53-34.56l-20.94-5.89-11.17,37.51Z"/><path class="cls-2" d="M604,330.5a1,1,0,0,1-.45-.11l-6.35-3.18a1,1,0,0,1-.51-1.18l11.17-37.51a1,1,0,0,1,1.23-.68l20.95,5.9a1,1,0,0,1,.51,1.58c-10.69,13.61-3.46,33.39-3.39,33.59a1,1,0,0,1-.11.92,1,1,0,0,1-.81.43L604,330.5Zm-5.15-4.7,5.38,2.7,20.61-.22c-1.47-4.7-5.46-20.61,3.26-33L609.51,290Z"/><path class="cls-11" d="M550.23,178.9s-30.15,44.7-38.63,100.8a45.68,45.68,0,0,0,12.71,39,20.84,20.84,0,0,0,15.59,6c17.33-.79,41.68-2,51.76-2.84l13,7.29c2.68-.63,4.47-3.47,4.07-6.73a61.4,61.4,0,0,1,3.35-30,7,7,0,0,0-2.36-8.09c-2.14-1.47-4.68-2.88-6.61-3-3.44-.18-7.63-.87-10.75-2.85A10,10,0,0,0,585,277c-5.1,1-13.82,2.15-22.35.37a9.05,9.05,0,0,1-5-3"/><path class="cls-2" d="M604.64,330.16a1,1,0,0,1-.49-.13l-12.72-7.14c-10.09.85-33.52,2-51.48,2.82a21.68,21.68,0,0,1-16.34-6.31,46.78,46.78,0,0,1-13-39.85C519,223.87,549.1,178.79,549.4,178.34a1,1,0,0,1,1.66,1.12c-.3.44-30.12,45.17-38.48,100.38-2.1,13.94,2.66,28.55,12.43,38.13a19.76,19.76,0,0,0,14.85,5.75c18.13-.84,41.82-2,51.71-2.85a1,1,0,0,1,.58.13l12.62,7.08a5,5,0,0,0,2.94-5.53,62.45,62.45,0,0,1,3.42-30.44,6,6,0,0,0-2-6.91c-2.57-1.76-4.68-2.73-6.1-2.81-4.71-.26-8.49-1.27-11.23-3a9,9,0,0,0-6.59-1.45c-5.71,1.14-14.29,2.13-22.74.37A10,10,0,0,1,556.9,275a1,1,0,0,1,1.52-1.3,8,8,0,0,0,4.46,2.69c8.55,1.78,17.41.53,21.94-.37a11.11,11.11,0,0,1,8.06,1.72c2.41,1.54,6,2.47,10.26,2.7,1.81.1,4.21,1.17,7.13,3.16a8,8,0,0,1,2.73,9.27,60.48,60.48,0,0,0-3.3,29.49c.45,3.71-1.62,7.07-4.83,7.82A.85.85,0,0,1,604.64,330.16Z"/><path class="cls-14" d="M646.84,199.24l8.36,6.8,6.29-8.07a103.2,103.2,0,0,0,14.69-29.2l-8.86-7.66-31.61-1-16.64-13.23-9.63,3.47,2.15,4.54.23.39C612.5,156.52,628.81,184.58,646.84,199.24Z"/><path class="cls-1" d="M620.43,108.45c-.08,10.8-.82,27.36-3.44,34.11l3.7,7.8s15.77,27.29,32.41,40.78c0,0,20-25.68,17.3-60.13"/><path class="cls-2" d="M653.1,192.14a1,1,0,0,1-.63-.22c-16.59-13.46-32.49-40.79-32.65-41.06L616.09,143a1,1,0,0,1,0-.79c2.93-7.57,3.32-27.76,3.37-33.76a1,1,0,0,1,1-1h0a1,1,0,0,1,1,1c-.06,7.68-.51,26.15-3.35,34.07l3.51,7.41c.12.2,15.32,26.32,31.33,39.77,3.31-4.67,18.83-28.37,16.48-58.62a1,1,0,0,1,.92-1.07,1,1,0,0,1,1.08.92c2.67,34.44-17.3,60.57-17.51,60.83a1,1,0,0,1-.67.38Z"/><path class="cls-15" d="M645.38,162h0A21.53,21.53,0,0,1,650,172.2l3.08,18.94-14.52-14-.91-10.95Z"/><path class="cls-2" d="M653.1,192.14a1,1,0,0,1-.69-.28l-14.53-14a1,1,0,0,1-.3-.64l-.91-10.94a1,1,0,0,1,.52-1l7.71-4.2a1,1,0,0,1,1.25.24A22.42,22.42,0,0,1,651,172L654.09,191a1,1,0,0,1-.52,1.05A1,1,0,0,1,653.1,192.14Zm-13.56-15.43,12.09,11.63-2.6-16a20.46,20.46,0,0,0-3.92-9.05l-6.39,3.48Z"/><path class="cls-4" d="M632.43,184.5s10.21-9.43,13-22.47c0,0-17.71-9.3-27-21.93a2.26,2.26,0,0,0-3.72.08c-1.43,2.47-3.76,5.77-6.75,7.67a4.24,4.24,0,0,0-1.25,5.78C611.09,161.38,621.29,177.44,632.43,184.5Z"/><path class="cls-2" d="M632.43,185.5a1.08,1.08,0,0,1-.54-.15c-11.11-7-21.15-22.59-26.15-31.22a5.21,5.21,0,0,1,1.59-7.13c2.82-1.79,5-5,6.42-7.32a3.1,3.1,0,0,1,2.53-1.51,3.29,3.29,0,0,1,2.86,1.33c9.09,12.31,26.52,21.55,26.7,21.64a1,1,0,0,1,.51,1.09c-2.77,13.21-12.81,22.61-13.24,23A1,1,0,0,1,632.43,185.5Zm-16-45.33h-.08a1.1,1.1,0,0,0-.91.52c-1.48,2.54-3.91,6-7.08,8a3.24,3.24,0,0,0-.92,4.44c3.87,6.69,13.92,22.8,24.82,30.1,2.09-2.12,9.48-10.19,11.94-20.68-3.39-1.86-18.27-10.43-26.71-21.86A1.32,1.32,0,0,0,616.47,140.17Z"/><path class="cls-9" d="M630,130.67s5.42,24.71,35.05,37.43c0,0,5.41-5.29,4.7-18.71C669.79,149.39,642.81,150.62,630,130.67Z"/><path class="cls-4" d="M658.06,183.94a34,34,0,0,0,9.71-9.9,2,2,0,0,1,3.41.17l4.9,9.33s2.25-17.77-6.34-26.23l-1.35,1.93a32.33,32.33,0,0,0-8.74,16.53Z"/><path class="cls-2" d="M658.06,184.94a1,1,0,0,1-.56-.18,1,1,0,0,1-.42-1l1.59-8.17a33.43,33.43,0,0,1,8.94-17l1.31-1.87a1,1,0,0,1,1.52-.14c8.84,8.72,6.73,26.33,6.63,27.08a1,1,0,0,1-.81.85,1,1,0,0,1-1.07-.52l-4.89-9.33a1,1,0,0,0-.88-.53.85.85,0,0,0-.79.41,34.55,34.55,0,0,1-10,10.23A1,1,0,0,1,658.06,184.94Zm11.79-26.05-.64.93-.11.13a31.36,31.36,0,0,0-8.47,16l-1.1,5.67a31.32,31.32,0,0,0,7.38-8.1,2.84,2.84,0,0,1,2.56-1.39,3,3,0,0,1,2.6,1.6l3.24,6.19C675.46,174.71,675,164.83,669.85,158.89Z"/><path class="cls-1" d="M701.93,85l.26-1.05s1-14.65-7.47-34.72l-52.63-8.4"/><path class="cls-2" d="M701.93,86l-.23,0A1,1,0,0,1,701,84.8l.23-1c.06-1.17.51-15.09-7.18-33.67l-52.08-8.31a1,1,0,1,1,.32-2l52.62,8.41a1,1,0,0,1,.77.6c8.42,20,7.58,34.55,7.54,35.16a1,1,0,0,1,0,.17l-.25,1A1,1,0,0,1,701.93,86Z"/><path class="cls-1" d="M629.76,126.64a39.28,39.28,0,0,0,4.2,8.51s6.85,11.85,26.77,17.29a19.25,19.25,0,0,0,22.6-9.91c3.72-7.47,8.75-16.92,12.47-31.78"/><path class="cls-2" d="M666.12,154.18a21.42,21.42,0,0,1-5.66-.77c-20.08-5.49-27.08-17.26-27.37-17.76a40.23,40.23,0,0,1-4.27-8.67,1,1,0,1,1,1.88-.67,39,39,0,0,0,4.09,8.29c.1.16,7,11.62,26.2,16.88a18.25,18.25,0,0,0,21.44-9.39l.85-1.69a134.45,134.45,0,0,0,11.55-29.9,1,1,0,0,1,1.22-.72,1,1,0,0,1,.72,1.21,136,136,0,0,1-11.71,30.31l-.84,1.68A20.07,20.07,0,0,1,666.12,154.18Z"/><path class="cls-2" d="M711.42,40.4c-2.91-10.08-11.6-20.28-34.18-22.31a6.38,6.38,0,0,0-6.9,7.06h0c.76,11.24-17.76,7.81-26.62,5.54-1.43-.48-3-.94-4.59-1.31a11.8,11.8,0,0,0-13.83,15.26,11.2,11.2,0,0,0-11.08,13c.7,5.29,8,14.89,4.15,20.58l5.7,4.69A4.78,4.78,0,0,0,632,79.09v-.16a4.75,4.75,0,0,1,6-4.76,4.76,4.76,0,0,0,6.06-4.77l-.4-16.63h.22a50.36,50.36,0,0,1,17,3.16A115.91,115.91,0,0,0,693.34,63,17.66,17.66,0,0,0,711.42,40.4Z"/><path class="cls-2" d="M627.23,85a6,6,0,0,1-3.81-1.4L617,78.37l.52-.75c2.28-3.34,0-8.58-2-13.2a28.63,28.63,0,0,1-2.32-6.69,12.64,12.64,0,0,1,3-10.06,11.8,11.8,0,0,1,7.81-4,13,13,0,0,1,3.15-11.61,12.59,12.59,0,0,1,12.18-3.68c1.53.35,3.11.8,4.69,1.33,11.54,2.95,20.14,3,23.54.21a5.26,5.26,0,0,0,1.77-4.74l-.11-1.58.14.05a7.58,7.58,0,0,1,2.19-4.55,7.17,7.17,0,0,1,5.77-2c24.1,2.17,32.36,13.72,35.06,23h0A18.66,18.66,0,0,1,693.29,64a116.33,116.33,0,0,1-32.78-7.14,49.32,49.32,0,0,0-15.81-3.09l.38,15.6a5.79,5.79,0,0,1-2.23,4.76,5.7,5.7,0,0,1-5.1,1A3.74,3.74,0,0,0,633,78.91v.16a5.76,5.76,0,0,1-5.74,6ZM619.66,78l5,4.14a3.82,3.82,0,0,0,4.19.56A3.72,3.72,0,0,0,631,79.12V79a5.77,5.77,0,0,1,2.21-4.75,5.71,5.71,0,0,1,5.1-1,3.77,3.77,0,0,0,3.35-.64,3.83,3.83,0,0,0,1.45-3.14l-.43-17.67h1.26A51.32,51.32,0,0,1,661.21,55a114.08,114.08,0,0,0,32.19,7,16.65,16.65,0,0,0,17.06-21.34h0C706.8,28,695.59,20.74,677.15,19.08A5.2,5.2,0,0,0,673,20.55a5.67,5.67,0,0,0-1.62,4.52l.13,1.61-.15-.06a6.85,6.85,0,0,1-2.47,4.87c-5.07,4.21-16.6,2.42-25.38.17a45.37,45.37,0,0,0-4.58-1.3,10.58,10.58,0,0,0-10.26,3.1,11,11,0,0,0-2.39,10.89l.41,1.3h-1.37A9.89,9.89,0,0,0,617.7,49a10.66,10.66,0,0,0-2.5,8.47,27.75,27.75,0,0,0,2.18,6.15C619.45,68.41,621.79,73.79,619.66,78Z"/><path class="cls-2" d="M673.16,75.48a1.51,1.51,0,0,1-1-.41,17.18,17.18,0,0,0-11.53-4.84,15.36,15.36,0,0,0-8,2.1,1.5,1.5,0,1,1-1.5-2.6,18.42,18.42,0,0,1,9.54-2.5,20.18,20.18,0,0,1,13.56,5.66,1.5,1.5,0,0,1-1,2.59Z"/><path class="cls-2" d="M658.2,104.52H658a11.68,11.68,0,0,1-8.6-4A14.93,14.93,0,0,1,646,89.15c.81-8.2,7.37-14.8,14.67-14.8h.16a11.7,11.7,0,0,1,8.63,4,15,15,0,0,1,3.45,11.41h0C672.06,97.93,665.5,104.52,658.2,104.52Zm2.43-28.17c-6.3,0-12,5.8-12.68,13a12.93,12.93,0,0,0,2.93,9.87,9.71,9.71,0,0,0,7.14,3.31h.18c6.3,0,12-5.78,12.68-13h0a12.91,12.91,0,0,0-3-9.88,9.67,9.67,0,0,0-7.17-3.29Z"/><path class="cls-2" d="M659.11,130.45a16.62,16.62,0,0,1-7.58-1.9,17,17,0,0,1-8-8.51,1,1,0,1,1,1.84-.77,15.08,15.08,0,0,0,7.06,7.5,13.88,13.88,0,0,0,9.93,1.25,1,1,0,0,1,1.23.71,1,1,0,0,1-.71,1.22A14.6,14.6,0,0,1,659.11,130.45Z"/><path class="cls-2" d="M702.06,77a1.52,1.52,0,0,1-.74-.2A13.76,13.76,0,0,0,694.69,75a12.85,12.85,0,0,0-6,1.37,1.5,1.5,0,0,1-1.34-2.68A15.54,15.54,0,0,1,694.73,72a16.73,16.73,0,0,1,8.06,2.2,1.5,1.5,0,0,1,.58,2A1.52,1.52,0,0,1,702.06,77Z"/><path class="cls-2" d="M692,108.37h-.16a9.09,9.09,0,0,1-6.74-3.21,15.28,15.28,0,0,1-3.29-11.69c.78-8,6.42-14.36,12.6-14.36h.13a9.07,9.07,0,0,1,6.75,3.19A15.28,15.28,0,0,1,704.59,94h0C703.81,102,698.17,108.37,692,108.37Zm2.41-27.26c-5.18,0-9.93,5.6-10.61,12.56-.39,4,.66,7.76,2.8,10.16a7.1,7.1,0,0,0,5.27,2.54H692c5.18,0,9.93-5.6,10.61-12.56h0c.39-4-.66-7.77-2.81-10.17a7.11,7.11,0,0,0-5.29-2.53Zm9.19,12.79h0Z"/><path class="cls-2" d="M682.91,93.63h-.1a1,1,0,0,1-.9-1.09,4.8,4.8,0,0,0-4.17-5.22,4.54,4.54,0,0,0-5,4.1,1,1,0,1,1-2-.19,6.58,6.58,0,0,1,2.41-4.5A6.46,6.46,0,0,1,678,85.33a6.8,6.8,0,0,1,5.93,7.4A1,1,0,0,1,682.91,93.63Z"/><path class="cls-1" d="M628.4,85.61a26.9,26.9,0,0,0-2.93-5,7.22,7.22,0,0,0-10.26-1.46h0a13.59,13.59,0,0,0-2.37,18.29c.24.35.49.71.74,1.05a16.67,16.67,0,0,0,13.16,6.93h0"/><path class="cls-2" d="M626.74,106.47h0a17.7,17.7,0,0,1-14-7.34c-.26-.36-.51-.71-.75-1.08a14.65,14.65,0,0,1,2.57-19.64,8,8,0,0,1,6-1.67,8.37,8.37,0,0,1,5.67,3.32,28.34,28.34,0,0,1,3.05,5.16,1,1,0,0,1-1.84.79,25.56,25.56,0,0,0-2.81-4.75,6.4,6.4,0,0,0-4.32-2.53A5.9,5.9,0,0,0,615.84,80c-5,4-5.93,11.43-2.17,17l.72,1a15.69,15.69,0,0,0,12.36,6.51,1,1,0,0,1,0,2Z"/><path class="cls-2" d="M647.54,86.78h-.09L627.52,85a1,1,0,1,1,.17-2l19.94,1.78a1,1,0,0,1,.91,1.08A1,1,0,0,1,647.54,86.78Z"/><path class="cls-9" d="M673.67,123.22a9.32,9.32,0,0,1-4.9-1.39l-4.42-2.72a1,1,0,0,1-.33-1.37,1,1,0,0,1,1.38-.33l4.42,2.72A7.46,7.46,0,0,0,680,117.76a7.6,7.6,0,0,0-.16-8.25c-2.85-4.47-3.53-11.79-3.6-17.15a1,1,0,0,1,1-1h0a1,1,0,0,1,1,1c.07,5.1.69,12,3.29,16.1a9.47,9.47,0,0,1-7.86,14.79Z"/><path class="cls-16" d="M620.39,99.14a1,1,0,0,1-.59-.19A12.84,12.84,0,0,1,617,96.1c-.22-.31-.45-.63-.67-1a9.47,9.47,0,0,1,1.53-12.69,2.81,2.81,0,0,1,2.14-.59,3.24,3.24,0,0,1,2.19,1.3,23.64,23.64,0,0,1,2.44,4.1,1,1,0,0,1-.53,1.32,1,1,0,0,1-1.31-.53,21.55,21.55,0,0,0-2.2-3.69,1.23,1.23,0,0,0-.84-.51.8.8,0,0,0-.64.16,7.45,7.45,0,0,0-1.12,10c.21.31.42.61.64.91a10.47,10.47,0,0,0,2.39,2.4,1,1,0,0,1,.23,1.39A1,1,0,0,1,620.39,99.14Z"/><path class="cls-17" d="M637.73,55.82l26.43,10.43c10.91,3.94,19,8.09,30.55,7.22l6.66-1-4.2-16.79L653.91,44l-12.18-.09Z"/><path class="cls-12" d="M533.11,325c17.1-.76,47.77-2.18,59.44-3.17l13.81,7.69,19.89-.3-1.79-8.14-14.72,1.31-.5-6.05-42.73-3c-17.23-1.19-32.93-11.4-42.31-27.52l-10.29-17.7a108,108,0,0,0-2.4,12.56C508.94,299.75,518.37,317.4,533.11,325Z"/><path class="cls-12" d="M722.22,334.74l-3-13.56c-4.72-21.47-9.16-42.08-19.07-61.2l-.57-1.09s-6.16,43.69-6.69,76.39Z"/><path class="cls-2" d="M445.22,348.35a.83.83,0,0,1-.22,0,1,1,0,0,1-.75-1.2l5.08-21.94a1,1,0,0,1,.45-.63,1,1,0,0,1,.76-.12,101.63,101.63,0,0,0,11.94,2,1,1,0,0,1-.23,2,113.08,113.08,0,0,1-11.2-1.81l-4.85,21A1,1,0,0,1,445.22,348.35Z"/><path class="cls-1" d="M598.3,329.28h58.1a193.32,193.32,0,0,0,41.75-4.47c12.91-2.85,25.1-4.67,37.87-8.43h0a46.41,46.41,0,0,1-13.88,12.52c-14.33,8.38-27.85,11.7-46.07,11.7H622.78"/><path class="cls-2" d="M676.07,341.6H622.79a1,1,0,0,1,0-2h53.28c18.33,0,31.53-3.35,45.57-11.56a44.93,44.93,0,0,0,11.68-9.85c-7.55,2.07-14.82,3.51-22.46,5-4.07.8-8.27,1.64-12.49,2.57a194.91,194.91,0,0,1-42,4.49H598.3a1,1,0,0,1,0-2h58.1a192.82,192.82,0,0,0,41.54-4.44c4.24-.94,8.45-1.78,12.53-2.59,8.6-1.7,16.72-3.32,25.27-5.83a1,1,0,0,1,1.08,1.55,47.08,47.08,0,0,1-14.17,12.79C708.27,338.17,694.78,341.6,676.07,341.6Z"/><path class="cls-2" d="M457.32,350.2l-.23,0a1,1,0,0,1-.75-1.2l6.33-27.34a1,1,0,0,1,.45-.62,1,1,0,0,1,.76-.12c34.46,8.29,117,.06,117.81,0a1.15,1.15,0,0,1,.55.1l48.42,24.26a1,1,0,0,1,.44,1.34,1,1,0,0,1-1.34.45L581.6,322.89c-5.39.53-82.93,7.93-117.2.18l-6.11,26.36A1,1,0,0,1,457.32,350.2Z"/><path class="cls-18" d="M698.9,333.45H819.38a0,0,0,0,1,0,0v7.22a0,0,0,0,1,0,0H706.12a7.22,7.22,0,0,1-7.22-7.22v0A0,0,0,0,1,698.9,333.45Z"/><path class="cls-2" d="M819.38,341.67H706.12a8.23,8.23,0,0,1-8.22-8.22,1,1,0,0,1,1-1H819.38a1,1,0,0,1,1,1v7.22A1,1,0,0,1,819.38,341.67ZM700,334.45a6.23,6.23,0,0,0,6.14,5.22H818.38v-5.22Z"/><path class="cls-1" d="M782.79,331.26l40.09-133.88a11.48,11.48,0,0,1,10.62-8.17L920,186.42a7.93,7.93,0,0,1,7.91,10L891,331.51a13,13,0,0,1-12.57,9.58L790,340.92A7.51,7.51,0,0,1,782.79,331.26Z"/><path class="cls-2" d="M878.44,342.09h0L790,341.92A8.5,8.5,0,0,1,781.84,331h0L821.92,197.1a12.45,12.45,0,0,1,11.55-8.89L920,185.42a8.77,8.77,0,0,1,7.3,3.39,8.87,8.87,0,0,1,1.6,7.9L892,331.77A14,14,0,0,1,878.44,342.09Zm-94.69-10.54a6.51,6.51,0,0,0,6.22,8.37l88.45.17h0A12,12,0,0,0,890,331.25l36.9-135.07a6.86,6.86,0,0,0-1.24-6.13,7,7,0,0,0-5.67-2.63l-86.47,2.79a10.45,10.45,0,0,0-9.7,7.46Z"/><path class="cls-19" d="M842.18,194.09a17.07,17.07,0,0,0-14,12l-41,133.56c0,.1,2,.21,2,.32l90.09,2a13.39,13.39,0,0,0,11.6-9.81l36.49-134.48a4.13,4.13,0,0,0-4.07-5.21Z"/><path class="cls-2" d="M678.37,336.56H609.13a1,1,0,0,1,0-2h69.24a1,1,0,0,1,0,2Z"/><polygon class="cls-9" points="748.01 123.87 759.51 130.81 811.83 108.19 811.78 96.28 748.01 123.87"/><polygon class="cls-9" points="747.01 27.13 759.89 33.73 806.49 3.25 779.39 5.9 747.01 27.13"/><path class="cls-9" d="M827.13,89.67s2.62,7,13.16,6.61l79.39-32.64V49.82Z"/><polygon class="cls-9" points="942.97 39.79 958.28 46.72 1046.37 9.4 1014.07 9.18 942.97 39.79"/><path class="cls-11" d="M993.13,289.85l6.3,51.81c.12,2,8.2,3.62,18,3.62s17.91-1.61,18-3.62l6.3-51.81Z"/><path class="cls-2" d="M1017.46,346.28c-.76,0-18.75,0-19-4.56L992.13,290a1,1,0,0,1,.25-.78,1,1,0,0,1,.75-.34h48.66a1,1,0,0,1,.75.34,1,1,0,0,1,.25.78l-6.3,51.81C1036.21,346.23,1018.23,346.28,1017.46,346.28Zm-23.2-55.43,6.16,50.69c.46,1,6.55,2.74,17,2.74s16.58-1.75,17-2.74l6.16-50.69Z"/><ellipse class="cls-20" cx="1017.65" cy="289.58" rx="24.52" ry="4.58"/><path class="cls-2" d="M993.13,290.85a1,1,0,0,1-1-.93,2.24,2.24,0,0,1,.67-1.71c2.75-3,14.37-4.28,24.66-4.28s21.91,1.32,24.66,4.28a2.24,2.24,0,0,1,.67,1.71,1,1,0,1,1-2-.14c-.15-1.31-8.52-3.85-23.34-3.85s-23.19,2.54-23.33,3.85a1,1,0,0,1-.93,1.07Z"/><path class="cls-10" d="M1031.14,293.79l6.37-46.27a2.38,2.38,0,0,1,2.69-2l1.09.15a2.38,2.38,0,0,1,2,2.68l-6.1,44.29"/><path class="cls-2" d="M1031.14,294.79H1031a1,1,0,0,1-.85-1.12l6.37-46.27a3.4,3.4,0,0,1,1.31-2.24,3.34,3.34,0,0,1,2.5-.65l1.09.15a3.38,3.38,0,0,1,2.89,3.81l-6.1,44.29a1,1,0,1,1-2-.28l6.1-44.28a1.39,1.39,0,0,0-1.18-1.56l-1.09-.15a1.4,1.4,0,0,0-1.56,1.18l-6.37,46.27A1,1,0,0,1,1031.14,294.79Z"/><path class="cls-2" d="M1042.79,278.59h-.14a1,1,0,0,1-.86-1.13l3.57-25.87a.86.86,0,0,0-.17-.64.87.87,0,0,0-.57-.34l-1.58-.21a1,1,0,0,1-.86-1.13,1,1,0,0,1,1.13-.85l1.58.21a2.9,2.9,0,0,1,1.9,1.11,2.87,2.87,0,0,1,.55,2.12l-3.57,25.87A1,1,0,0,1,1042.79,278.59Z"/><path class="cls-2" d="M1037.83,289.2h-.14l-5.81-.8a1,1,0,0,1,.27-2l5.81.8a1,1,0,0,1,.85,1.13A1,1,0,0,1,1037.83,289.2Z"/><path class="cls-21" d="M1003.07,293.69l-8.93-36.95a2.07,2.07,0,0,0-2.49-1.54l-1.25.3a2.05,2.05,0,0,0-1.53,2.48L997,292.4"/><path class="cls-2" d="M1003.07,294.69a1,1,0,0,1-1-.76L993.17,257a1.07,1.07,0,0,0-1.29-.8l-1.25.29a1.06,1.06,0,0,0-.79,1.28L998,292.17a1,1,0,0,1-2,.46l-8.11-34.42a3,3,0,0,1,.38-2.31,3.06,3.06,0,0,1,1.9-1.38l1.25-.29a3.08,3.08,0,0,1,3.69,2.28l8.93,36.95a1,1,0,0,1-.73,1.2Z"/><path class="cls-2" d="M991.94,286a1,1,0,0,1-1-.77l-5.54-23.5a2.74,2.74,0,0,1,2-3.28l1.44-.33a1,1,0,1,1,.46,1.94l-1.44.34a.72.72,0,0,0-.54.87l5.53,23.5a1,1,0,0,1-.74,1.2A.91.91,0,0,1,991.94,286Z"/><path class="cls-21" d="M1019.15,294.62v-46.9a1.19,1.19,0,0,1,1.19-1.19h2.16a1.19,1.19,0,0,1,1.19,1.19v46.75"/><path class="cls-2" d="M1019.15,295.62a1,1,0,0,1-1-1v-46.9a2.19,2.19,0,0,1,2.19-2.19h2.16a2.19,2.19,0,0,1,2.19,2.19v46.75a1,1,0,0,1-2,0V247.72a.18.18,0,0,0-.19-.19h-2.16a.18.18,0,0,0-.19.19v46.9A1,1,0,0,1,1019.15,295.62Z"/><path class="cls-2" d="M1007.79,294.23l-3.59-50.9a1.19,1.19,0,0,1,1.1-1.27l2.5-.18a1.19,1.19,0,0,1,1.27,1.11l3.64,51.64"/><path class="cls-2" d="M1017.46,295.63c-8.62,0-25-1.19-25.33-5.71a1,1,0,0,1,.93-1.07,1,1,0,0,1,1.07.93c.13,1.31,8.49,3.85,23.33,3.85s23.2-2.54,23.34-3.85a1,1,0,0,1,2,.14C1042.46,294.44,1026.08,295.63,1017.46,295.63Z"/><path class="cls-22" d="M659,182.83l7.39-7.37,1.71-3.1,3.29,1.57-6.61-10.61S657.94,179.47,659,182.83Z"/><path class="cls-2" d="M669.27,173.91a1,1,0,0,1-.86-.49L663.46,165a1,1,0,1,1,1.72-1l5,8.46a1,1,0,0,1-.35,1.37A1,1,0,0,1,669.27,173.91Z"/></svg>