<svg width="438" height="181" viewBox="0 0 438 181" fill="none" xmlns="http://www.w3.org/2000/svg">
<ellipse cx="434.152" cy="2.97588" rx="2.97491" ry="3.2643" transform="rotate(90 434.152 2.97588)" fill="#EF4358"/>
<ellipse cx="434.152" cy="46.6067" rx="2.97491" ry="3.2643" transform="rotate(90 434.152 46.6067)" fill="#EF4358"/>
<ellipse cx="434.152" cy="90.2386" rx="2.97491" ry="3.2643" transform="rotate(90 434.152 90.2386)" fill="#EF4358"/>
<ellipse cx="434.152" cy="133.871" rx="2.97491" ry="3.2643" transform="rotate(90 434.152 133.871)" fill="#EF4358"/>
<ellipse cx="434.152" cy="177.503" rx="2.97491" ry="3.2643" transform="rotate(90 434.152 177.503)" fill="#EF4358"/>
<ellipse cx="386.276" cy="2.97491" rx="2.97491" ry="3.2643" transform="rotate(90 386.276 2.97491)" fill="#EF4358"/>
<ellipse cx="386.276" cy="46.6067" rx="2.97491" ry="3.2643" transform="rotate(90 386.276 46.6067)" fill="#EF4358"/>
<ellipse cx="386.276" cy="90.2386" rx="2.97491" ry="3.2643" transform="rotate(90 386.276 90.2386)" fill="#EF4358"/>
<ellipse cx="386.276" cy="133.87" rx="2.97491" ry="3.2643" transform="rotate(90 386.276 133.87)" fill="#EF4358"/>
<ellipse cx="386.275" cy="177.503" rx="2.97491" ry="3.2643" transform="rotate(90 386.275 177.503)" fill="#EF4358"/>
<ellipse cx="338.399" cy="2.97491" rx="2.97491" ry="3.2643" transform="rotate(90 338.399 2.97491)" fill="#EF4358"/>
<ellipse cx="338.399" cy="46.6067" rx="2.97491" ry="3.2643" transform="rotate(90 338.399 46.6067)" fill="#EF4358"/>
<ellipse cx="338.399" cy="90.2386" rx="2.97491" ry="3.2643" transform="rotate(90 338.399 90.2386)" fill="#EF4358"/>
<ellipse cx="338.399" cy="133.87" rx="2.97491" ry="3.2643" transform="rotate(90 338.399 133.87)" fill="#EF4358"/>
<ellipse cx="338.399" cy="177.503" rx="2.97491" ry="3.2643" transform="rotate(90 338.399 177.503)" fill="#EF4358"/>
<ellipse cx="290.523" cy="2.97491" rx="2.97491" ry="3.2643" transform="rotate(90 290.523 2.97491)" fill="#EF4358"/>
<ellipse cx="290.523" cy="46.6067" rx="2.97491" ry="3.2643" transform="rotate(90 290.523 46.6067)" fill="#EF4358"/>
<ellipse cx="290.523" cy="90.2386" rx="2.97491" ry="3.2643" transform="rotate(90 290.523 90.2386)" fill="#EF4358"/>
<ellipse cx="290.523" cy="133.87" rx="2.97491" ry="3.2643" transform="rotate(90 290.523 133.87)" fill="#EF4358"/>
<ellipse cx="290.523" cy="177.503" rx="2.97491" ry="3.2643" transform="rotate(90 290.523 177.503)" fill="#EF4358"/>
<ellipse cx="242.646" cy="2.97491" rx="2.97491" ry="3.2643" transform="rotate(90 242.646 2.97491)" fill="#EF4358"/>
<ellipse cx="242.646" cy="46.6067" rx="2.97491" ry="3.2643" transform="rotate(90 242.646 46.6067)" fill="#EF4358"/>
<ellipse cx="242.646" cy="90.2386" rx="2.97491" ry="3.2643" transform="rotate(90 242.646 90.2386)" fill="#EF4358"/>
<ellipse cx="242.646" cy="133.87" rx="2.97491" ry="3.2643" transform="rotate(90 242.646 133.87)" fill="#EF4358"/>
<ellipse cx="242.646" cy="177.503" rx="2.97491" ry="3.2643" transform="rotate(90 242.646 177.503)" fill="#EF4358"/>
<ellipse cx="194.77" cy="2.97491" rx="2.97491" ry="3.2643" transform="rotate(90 194.77 2.97491)" fill="#EF4358"/>
<ellipse cx="194.77" cy="46.6067" rx="2.97491" ry="3.2643" transform="rotate(90 194.77 46.6067)" fill="#EF4358"/>
<ellipse cx="194.77" cy="90.2386" rx="2.97491" ry="3.2643" transform="rotate(90 194.77 90.2386)" fill="#EF4358"/>
<ellipse cx="194.77" cy="133.87" rx="2.97491" ry="3.2643" transform="rotate(90 194.77 133.87)" fill="#EF4358"/>
<ellipse cx="194.77" cy="177.503" rx="2.97491" ry="3.2643" transform="rotate(90 194.77 177.503)" fill="#EF4358"/>
<ellipse cx="146.893" cy="2.97491" rx="2.97491" ry="3.2643" transform="rotate(90 146.893 2.97491)" fill="#EF4358"/>
<ellipse cx="146.893" cy="46.6067" rx="2.97491" ry="3.2643" transform="rotate(90 146.893 46.6067)" fill="#EF4358"/>
<ellipse cx="146.893" cy="90.2386" rx="2.97491" ry="3.2643" transform="rotate(90 146.893 90.2386)" fill="#EF4358"/>
<ellipse cx="146.893" cy="133.87" rx="2.97491" ry="3.2643" transform="rotate(90 146.893 133.87)" fill="#EF4358"/>
<ellipse cx="146.893" cy="177.503" rx="2.97491" ry="3.2643" transform="rotate(90 146.893 177.503)" fill="#EF4358"/>
<ellipse cx="99.0169" cy="2.97491" rx="2.97491" ry="3.2643" transform="rotate(90 99.0169 2.97491)" fill="#EF4358"/>
<ellipse cx="99.0169" cy="46.6067" rx="2.97491" ry="3.2643" transform="rotate(90 99.0169 46.6067)" fill="#EF4358"/>
<ellipse cx="99.0169" cy="90.2386" rx="2.97491" ry="3.2643" transform="rotate(90 99.0169 90.2386)" fill="#EF4358"/>
<ellipse cx="99.0169" cy="133.87" rx="2.97491" ry="3.2643" transform="rotate(90 99.0169 133.87)" fill="#EF4358"/>
<ellipse cx="99.0169" cy="177.503" rx="2.97491" ry="3.2643" transform="rotate(90 99.0169 177.503)" fill="#EF4358"/>
<ellipse cx="51.14" cy="2.97491" rx="2.97491" ry="3.2643" transform="rotate(90 51.14 2.97491)" fill="#EF4358"/>
<ellipse cx="51.14" cy="46.6067" rx="2.97491" ry="3.2643" transform="rotate(90 51.14 46.6067)" fill="#EF4358"/>
<ellipse cx="51.14" cy="90.2386" rx="2.97491" ry="3.2643" transform="rotate(90 51.14 90.2386)" fill="#EF4358"/>
<ellipse cx="51.14" cy="133.87" rx="2.97491" ry="3.2643" transform="rotate(90 51.14 133.87)" fill="#EF4358"/>
<ellipse cx="51.14" cy="177.503" rx="2.97491" ry="3.2643" transform="rotate(90 51.14 177.503)" fill="#EF4358"/>
<ellipse cx="3.26402" cy="2.97491" rx="2.97491" ry="3.2643" transform="rotate(90 3.26402 2.97491)" fill="#EF4358"/>
<ellipse cx="3.26402" cy="46.6067" rx="2.97491" ry="3.2643" transform="rotate(90 3.26402 46.6067)" fill="#EF4358"/>
<ellipse cx="3.26402" cy="90.2386" rx="2.97491" ry="3.2643" transform="rotate(90 3.26402 90.2386)" fill="#EF4358"/>
<ellipse cx="3.26402" cy="133.87" rx="2.97491" ry="3.2643" transform="rotate(90 3.26402 133.87)" fill="#EF4358"/>
<ellipse cx="3.26402" cy="177.503" rx="2.97491" ry="3.2643" transform="rotate(90 3.26402 177.503)" fill="#EF4358"/>
</svg>
